<svg version="1.0" xmlns="http://www.w3.org/2000/svg" width="35" height="35" viewBox="0 0 579 678" preserveAspectRatio="xMidYMid meet">
  <g transform="translate(-20,650) scale(0.1,-0.1)" fill="#0167FE" stroke="none">
    <path d="M2935 5615 c-27 -8 -60 -14 -72 -15 -38 0 -168 -60 -243 -111 -124 -84 -222 -220 -274 -381 l-24 -73 -274 -5 c-272 -5 -323 -11 -408 -47 -97 -41 -131 -64 -205 -138 -88 -88 -130 -160 -162 -280 -17 -67 -18 -145 -18 -1635 0 -1490 1 -1568 18 -1635 32 -120 74 -192 162 -280 74 -74 108 -97 205 -138 101 -43 74 -42 1410 -42 1428 0 1314 -6 1490 79 61 29 199 169 229 231 12 28 27 58 32 68 9 17 20 61 39 157 12 59 12 3061 0 3120 -19 96 -30 140 -39 157 -5 10 -20 40 -32 68 -30 62 -168 202 -229 231 -155 75 -176 78 -488 84 l-274 5 -24 73 c-52 161 -150 297 -274 381 -73 50 -206 111 -240 111 -10 0 -45 7 -77 15 -70 18 -161 18 -228 0z m193 -522 c22 -4 50 -22 81 -53 93 -93 93 -227 1 -319 -58 -58 -127 -77 -217 -58 -47 10 -66 20 -103 58 -61 61 -80 130 -60 215 19 77 85 145 156 161 46 10 62 10 142 -4z m-1128 -520 c1 -187 8 -262 28 -306 22 -48 76 -107 98 -107 6 0 25 -7 40 -15 44 -22 1724 -22 1768 0 15 8 33 15 40 15 22 1 65 46 92 95 25 46 28 61 31 178 2 70 3 132 3 138 0 5 44 9 100 9 110 0 146 -13 181 -67 18 -27 19 -81 19 -1583 0 -1502 -1 -1556 -19 -1583 -10 -16 -33 -37 -50 -48 -31 -18 -68 -19 -1281 -19 -1213 0 -1250 1 -1281 19 -17 11 -40 32 -50 48 -18 27 -19 81 -19 1583 0 1503 1 1556 19 1583 35 54 66 65 179 66 56 1 102 -2 102 -6z"/>
  </g>
</svg> 