<svg version="1.0" xmlns="http://www.w3.org/2000/svg" width="35" height="35" viewBox="0 0 300 214" preserveAspectRatio="xMidYMid meet">
  <g transform="translate(0,214) scale(0.1,-0.1)" fill="#0167FE" stroke="none">
    <path d="M1505 1695 c-79 -21 -202 -81 -215 -104 -16 -30 13 -55 138 -121 89 -48 102 -58 102 -80 0 -15 7 -51 16 -81 14 -46 29 -67 106 -143 101 -98 153 -127 236 -132 52 -3 92 -23 92 -46 0 -6 -9 -21 -20 -35 -11 -14 -20 -32 -20 -40 0 -8 25 -41 57 -74 39 -41 64 -59 81 -59 19 0 60 34 165 138 76 75 143 147 148 160 12 30 -8 68 -60 115 -48 43 -84 47 -118 15 l-23 -22 -21 21 c-17 17 -22 35 -24 89 -1 47 -9 82 -23 110 -24 47 -193 212 -254 248 -91 53 -252 71 -363 41z"/>
    <path d="M1146 896 c-361 -300 -375 -314 -384 -407 -12 -125 85 -228 213 -229 89 0 124 26 275 206 182 217 412 494 427 515 11 15 0 29 -78 105 -49 49 -95 90 -102 91 -7 1 -165 -125 -351 -281z"/>
  </g>
</svg> 