<?xml version="1.0" standalone="no"?>
<!DOCTYPE svg PUBLIC "-//W3C//DTD SVG 20010904//EN"
 "http://www.w3.org/TR/2001/REC-SVG-20010904/DTD/svg10.dtd">
<svg version="1.0" xmlns="http://www.w3.org/2000/svg" width="35" height="35" viewBox="0 0 224 210" preserveAspectRatio="xMidYMid meet">
<metadata>
Created by potrace 1.10, written by Peter Selinger 2001-2011
</metadata>
<g transform="translate(0,220) scale(0.1,-0.1)"
fill="#0167FE" stroke="none">
<path d="M925 1944 c-11 -2 -45 -9 -75 -15 -30 -6 -93 -29 -139 -51 -68 -32
-101 -56 -166 -122 -132 -133 -189 -271 -189 -456 0 -185 57 -323 189 -456 65
-66 98 -89 166 -122 111 -53 173 -67 294 -66 122 1 202 21 308 77 l79 42 201
-207 c134 -138 211 -210 229 -214 78 -18 142 46 124 123 -4 19 -76 95 -213
229 l-207 201 47 94 c99 200 101 386 5 588 -75 157 -236 290 -408 336 -57 16
-210 28 -245 19z m204 -213 c33 -10 80 -30 103 -44 54 -31 139 -120 166 -173
69 -135 69 -293 0 -428 -27 -53 -112 -142 -166 -173 -140 -82 -324 -82 -464 0
-54 31 -139 120 -166 173 -69 135 -69 293 0 428 27 53 112 142 166 173 106 62
247 80 361 44z"/>
</g>
</svg>
