<svg version="1.0" xmlns="http://www.w3.org/2000/svg" width="35" height="35" viewBox="0 0 267 206" preserveAspectRatio="xMidYMid meet">
  <g transform="translate(11,220) scale(0.1,-0.1)" fill="#0167FE" stroke="none">
    <path d="M885 1770 c-165 -70 -317 -137 -337 -149 -25 -14 -45 -37 -64 -76 -25 -53 -27 -62 -21 -148 27 -401 212 -765 490 -961 102 -73 211 -126 257 -126 46 0 155 53 257 126 278 196 463 560 490 961 6 86 4 95 -21 146 -14 30 -38 63 -53 72 -43 29 -655 285 -677 284 -12 0 -156 -58 -321 -129z"/>
  </g>
</svg> 