 <svg  version="1.0" xmlns="http://www.w3.org/2000/svg"  width="300.000000pt" height="233.000000pt" viewBox="0 0 300.000000 233.000000"  preserveAspectRatio="xMidYMid meet">  <g transform="translate(0.000000,233.000000) scale(0.100000,-0.100000)" fill="#ffffff" stroke="none"> <path d="M472 2177 c-9 -11 16 -71 118 -278 265 -536 239 -477 218 -496 -11 -10 -18 -30 -18 -54 0 -21 -5 -41 -10 -44 -6 -4 -21 -23 -34 -43 -78 -124 -60 -288 41 -389 150 -150 395 -111 498 78 26 48 29 64 29 139 0 73 -4 92 -27 137 -56 107 -159 173 -272 173 -30 0 -55 4 -55 10 0 13 -57 42 -75 38 -10 -2 -53 77 -137 247 -186 380 -242 489 -254 492 -6 2 -16 -3 -22 -10z m438 -785 c0 -4 -16 -15 -35 -24 -28 -12 -35 -13 -35 -2 0 7 8 18 18 23 20 12 52 14 52 3z m200 -63 c101 -45 154 -126 154 -234 -1 -111 -46 -187 -141 -235 -64 -33 -169 -34 -229 -3 -132 70 -183 225 -116 353 63 122 210 174 332 119z"/> <path d="M1849 2074 c-5 -7 -8 -63 -7 -125 l3 -114 153 -3 c118 -2 152 0 152 10 3 73 0 231 -3 234 -11 11 -289 8 -298 -2z m254 -118 l2 -76 -107 0 -108 0 0 78 0 77 106 -2 106 -1 1 -76z"/> <path d="M1450 1931 c-119 -64 -112 -57 -95 -92 12 -22 42 -42 118 -80 56 -28 103 -53 105 -54 2 -2 -15 -36 -38 -76 l-42 -74 43 -87 c24 -48 49 -90 56 -92 12 -5 196 84 217 104 4 5 -47 115 -117 252 -92 180 -130 243 -143 244 -11 1 -57 -19 -104 -45z m198 -215 c56 -112 102 -206 102 -209 0 -3 -29 -21 -65 -40 l-65 -35 -30 56 c-16 31 -30 59 -30 64 0 5 19 43 41 84 50 91 52 89 -90 159 -56 27 -101 52 -101 55 0 5 118 68 130 69 3 1 52 -91 108 -203z"/> <path d="M2252 1758 c-5 -7 -22 -38 -37 -68 -15 -30 -29 -56 -30 -58 -2 -2 -22 6 -45 18 -59 30 -72 17 -68 -69 l3 -66 285 0 285 0 3 114 c2 75 -1 118 -9 127 -16 19 -371 21 -387 2z m348 -120 l0 -78 -192 -2 c-106 -1 -213 -2 -238 -3 -39 0 -45 3 -48 23 -4 26 0 27 39 6 17 -8 36 -13 42 -11 7 3 25 31 42 63 16 33 32 64 36 69 4 6 71 10 163 10 l156 0 0 -77z"/> <path d="M1415 1315 c-7 -16 -28 -78 -46 -138 -24 -80 -30 -110 -21 -119 8 -8 37 -3 112 22 75 24 105 29 113 21 6 -6 39 -11 74 -11 l63 0 0 -65 c0 -48 4 -67 14 -71 11 -4 13 -12 6 -29 -14 -38 8 -47 104 -43 l86 3 -1 -80 -1 -80 -86 -77 -87 -77 -3 57 c-4 107 1 102 -110 102 -92 0 -100 -2 -122 -25 -30 -32 -40 -32 -40 0 l0 26 -137 -3 -138 -3 -3 -102 -3 -103 -154 0 -155 0 0 -205 0 -205 -391 0 -390 0 3 -23 3 -22 1425 0 c1418 0 1425 0 1425 20 0 18 -8 20 -75 23 l-75 3 3 605 c2 441 0 610 -9 620 -9 11 -127 13 -691 12 l-681 -2 -12 -31z m505 -97 l0 -78 -145 0 c-138 0 -145 1 -145 20 0 26 -9 25 -115 -10 -50 -16 -95 -30 -101 -30 -7 0 0 34 17 88 l29 87 230 0 230 0 0 -77z m520 0 l0 -78 -235 0 -235 0 0 78 0 77 235 0 235 0 0 -77z m314 -1 l1 -77 -132 0 -133 0 0 78 0 77 132 -1 132 -1 0 -76z m-522 -203 c2 -42 1 -78 -1 -80 -2 -2 -105 -4 -228 -4 -218 0 -223 0 -213 19 17 33 12 61 -10 61 -17 0 -20 7 -20 40 l0 40 234 0 234 0 4 -76z m523 -4 l1 -80 -238 0 -238 0 0 80 0 80 238 0 237 0 0 -80z m-315 -205 l0 -75 -235 0 -235 0 0 78 0 77 235 -3 235 -3 0 -74z m315 0 l0 -75 -132 0 -133 0 0 75 0 75 133 0 132 0 0 -75z m-1323 -162 c4 -52 25 -52 80 -3 44 38 49 40 112 40 l66 0 0 -42 c0 -24 3 -60 6 -80 l7 -38 -232 0 -231 0 0 80 0 80 94 0 95 0 3 -37z m799 33 c2 -2 3 -38 1 -80 l-4 -76 -231 0 -231 0 84 80 85 79 146 1 c80 0 148 -2 150 -4z m523 -78 l1 -78 -237 0 -238 0 0 80 0 80 236 -2 236 -3 2 -77z m-1354 -205 l0 -78 -235 0 -235 0 0 78 0 77 235 0 235 0 0 -77z m520 0 l0 -78 -235 0 -235 0 0 78 0 77 235 0 235 0 0 -77z m520 2 l0 -74 -235 -3 -235 -3 0 78 0 77 235 0 235 0 0 -75z m314 -1 l0 -75 -130 0 -129 0 -3 75 -3 76 133 0 133 0 -1 -76z m-1564 -204 l0 -80 -130 0 -130 0 0 80 0 80 130 0 130 0 0 -80z m520 0 l0 -80 -235 0 -235 0 0 80 0 80 235 0 235 0 0 -80z m521 76 c2 -2 3 -38 1 -80 l-4 -76 -234 0 -234 0 0 80 0 80 233 0 c129 0 236 -2 238 -4z m523 -79 l1 -77 -237 0 -238 0 0 80 0 80 237 -2 237 -3 0 -78z"/> <path d="M620 733 c-80 -25 -148 -50 -151 -55 -7 -10 53 -214 67 -228 6 -6 46 1 109 21 55 16 125 37 155 46 85 25 86 26 55 124 -15 46 -30 95 -34 109 -11 37 -38 35 -201 -17z m179 -86 c13 -38 21 -70 19 -71 -1 -2 -32 -11 -68 -20 -36 -10 -89 -27 -119 -37 -30 -10 -57 -17 -60 -14 -2 3 -15 37 -27 76 -16 49 -19 71 -11 74 95 26 150 42 187 56 25 9 48 13 51 10 3 -3 16 -37 28 -74z"/> <path d="M982 677 c-20 -24 6 -84 42 -97 26 -9 33 -8 43 7 16 21 16 53 0 74 -17 23 -71 33 -85 16z"/> <path d="M223 487 c-24 -46 -43 -88 -43 -93 0 -17 270 -246 284 -241 7 3 18 38 25 81 l12 76 54 0 c55 0 69 8 60 32 -3 8 -64 43 -136 78 -113 57 -134 71 -157 107 -15 24 -34 43 -42 43 -9 0 -33 -35 -57 -83z m187 -88 c72 -35 82 -43 64 -50 -17 -6 -23 -19 -28 -63 -7 -55 -17 -68 -33 -43 -6 9 -153 141 -172 154 -3 2 5 24 18 50 l22 47 22 -27 c12 -14 60 -44 107 -68z"/> <path d="M752 344 c-30 -8 -61 -18 -69 -23 -15 -8 -53 -93 -53 -118 0 -7 25 -20 55 -28 54 -16 56 -16 98 7 40 22 43 27 55 88 19 97 14 101 -86 74z m38 -68 c0 -30 -34 -56 -73 -56 -22 0 -28 4 -23 16 3 9 6 21 6 28 0 12 46 32 78 35 6 1 12 -10 12 -23z"/> </g> </svg> 