 <svg  version="1.0" xmlns="http://www.w3.org/2000/svg"  width="273.000000pt" height="190.000000pt" viewBox="0 0 273.000000 190.000000"  preserveAspectRatio="xMidYMid meet">  <g transform="translate(0.000000,190.000000) scale(0.050000,-0.050000)" fill="#ffffff" stroke="none"> <path d="M2124 3476 c-41 -41 -34 -3028 8 -3044 97 -37 2107 -12 2127 27 38 70 28 2942 -10 2997 l-31 44 -1035 0 c-778 0 -1041 -6 -1059 -24z m496 -1516 l0 -1380 -180 0 -180 0 0 1380 0 1380 180 0 180 0 0 -1380z m1000 0 l0 -1380 -420 0 -420 0 0 1380 0 1380 420 0 420 0 0 -1380z m483 1265 c1 -63 4 -684 5 -1380 l2 -1265 -165 0 -165 0 0 1380 0 1380 160 0 160 0 3 -115z"/> <path d="M2932 3089 c-39 -39 -40 -51 -7 -96 37 -50 330 -40 363 12 60 95 -267 173 -356 84z"/> <path d="M3101 2722 c-49 -93 15 -128 218 -118 141 7 191 44 149 111 -35 56 -338 62 -367 7z"/> <path d="M2940 2384 c-39 -32 -42 -43 -22 -81 38 -71 369 -57 379 16 14 100 -253 149 -357 65z"/> <path d="M3112 2029 c-39 -39 -40 -51 -7 -96 37 -50 330 -40 363 12 60 95 -267 173 -356 84z"/> <path d="M2920 1659 c-42 -77 23 -119 179 -119 153 0 208 28 198 101 -10 72 -340 87 -377 18z"/> <path d="M3112 1322 c-74 -81 -14 -122 178 -122 180 0 240 46 170 130 -40 48 -303 42 -348 -8z"/> <path d="M2921 962 c-49 -93 15 -128 218 -118 141 7 191 44 149 111 -35 56 -338 62 -367 7z"/> <path d="M1170 2662 c-108 -50 -177 -127 -161 -179 19 -61 86 -74 138 -27 107 97 173 105 279 33 143 -98 341 -69 426 61 71 109 -47 171 -154 81 -78 -65 -96 -64 -211 9 -111 70 -200 76 -317 22z"/> <path d="M1170 2092 c-97 -44 -183 -146 -157 -188 33 -54 102 -52 169 5 77 65 155 65 250 1 110 -75 239 -74 352 4 109 74 122 140 36 186 -29 15 -50 9 -96 -30 -76 -63 -146 -63 -240 0 -83 57 -215 66 -314 22z"/> <path d="M1210 1516 c-143 -50 -240 -166 -189 -227 34 -41 76 -36 158 19 112 76 146 79 233 19 145 -99 310 -84 425 39 96 104 -10 197 -119 105 -63 -53 -165 -68 -189 -29 -44 70 -216 110 -319 74z"/> </g> </svg> 