 <svg  version="1.0" xmlns="http://www.w3.org/2000/svg"  width="654.000000pt" height="573.000000pt" viewBox="0 0 654.000000 573.000000"  preserveAspectRatio="xMidYMid meet">  <g transform="translate(0.000000,573.000000) scale(0.100000,-0.100000)" fill="#ffffff" stroke="none"> <path d="M3685 5255 c-27 -8 -63 -14 -80 -15 -16 0 -43 -7 -59 -15 -15 -8 -36 -15 -45 -15 -19 0 -128 -54 -186 -91 -83 -55 -265 -243 -265 -275 0 -4 -6 -15 -13 -23 -18 -22 -72 -153 -90 -221 -34 -128 -37 -219 -37 -1117 0 -488 0 -894 0 -901 0 -10 -64 -12 -302 -10 l-303 3 -6 170 c-4 112 -11 185 -21 215 -21 59 -59 131 -97 178 -31 40 -142 122 -164 122 -7 0 -18 5 -24 11 -6 6 -29 15 -50 20 -21 4 -56 12 -78 18 -23 6 -152 11 -300 11 -211 0 -265 -3 -289 -15 -15 -8 -32 -15 -38 -15 -18 0 -70 -46 -86 -75 -42 -82 -42 -158 0 -240 16 -29 68 -75 86 -75 6 0 23 -7 38 -15 24 -12 77 -15 285 -15 318 0 299 10 300 -161 0 -63 0 -120 0 -126 -1 -10 -89 -13 -403 -13 -338 0 -408 -3 -432 -15 -15 -8 -34 -15 -41 -15 -6 0 -31 -13 -53 -30 -152 -110 -152 -370 0 -480 22 -17 47 -30 53 -30 7 0 26 -7 41 -15 26 -13 292 -15 2182 -15 2326 0 2155 -4 2261 48 38 18 88 78 114 135 23 50 23 172 0 229 -23 60 -74 120 -119 142 -22 11 -48 24 -59 30 -13 7 -160 13 -435 16 l-415 5 -3 116 c-3 113 -2 118 24 148 l26 31 293 0 c287 0 294 0 346 24 67 29 94 58 119 125 25 64 25 87 0 154 -25 65 -59 99 -128 126 -49 20 -73 21 -343 21 -298 0 -375 -8 -452 -46 -16 -8 -33 -14 -37 -14 -15 0 -103 -62 -135 -95 -106 -110 -147 -231 -151 -455 -2 -69 -3 -128 -4 -133 0 -4 -136 -6 -302 -5 l-303 3 -3 910 c-3 1041 -6 994 78 1086 70 75 125 99 230 99 74 0 94 -4 136 -26 105 -55 150 -121 165 -242 14 -120 23 -154 52 -200 27 -42 99 -102 122 -102 7 0 26 -7 41 -15 80 -42 241 5 308 90 55 70 66 105 66 218 0 56 -5 120 -11 142 -6 22 -14 58 -19 80 -11 51 -55 153 -100 230 -39 68 -192 228 -260 271 -64 41 -172 94 -191 94 -9 0 -30 7 -45 15 -16 8 -42 15 -59 15 -16 0 -52 7 -79 15 -61 18 -184 18 -251 0z"/> <path d="M1123 1663 c-29 -11 -11 -399 23 -515 8 -26 14 -52 14 -58 0 -25 95 -208 136 -261 49 -64 160 -169 219 -208 63 -41 168 -91 191 -91 11 0 25 -5 32 -12 7 -7 36 -15 64 -19 29 -4 73 -12 98 -18 29 -7 484 -10 1315 -11 1098 0 1279 2 1328 15 32 8 70 15 86 15 15 0 36 7 47 15 10 8 28 15 39 15 23 0 128 51 195 94 62 40 194 170 235 233 41 60 77 130 100 193 16 43 21 61 45 160 6 27 9 127 8 250 l-3 205 -2080 2 c-1144 1 -2086 -1 -2092 -4z"/> </g> </svg> 