 <svg  version="1.0" xmlns="http://www.w3.org/2000/svg"  width="203.000000pt" height="191.000000pt" viewBox="0 0 203.000000 191.000000"  preserveAspectRatio="xMidYMid meet">  <g transform="translate(0.000000,191.000000) scale(0.100000,-0.100000)" fill="#ffffff" stroke="none"> <path d="M915 1780 c-295 -47 -537 -250 -636 -536 -33 -96 -34 -104 -34 -254 0 -150 1 -158 34 -254 73 -210 220 -375 416 -466 120 -56 200 -74 340 -74 140 0 220 18 340 74 196 91 343 256 416 466 33 96 34 104 34 254 0 150 -1 158 -34 254 -36 102 -96 205 -170 288 -92 103 -252 198 -392 232 -83 20 -235 28 -314 16z m263 -106 c44 -9 117 -35 171 -61 79 -38 108 -59 175 -127 91 -91 136 -161 172 -265 67 -193 45 -414 -58 -589 -18 -31 -69 -93 -114 -138 -67 -68 -96 -89 -175 -127 -211 -102 -417 -102 -628 0 -79 38 -108 59 -175 127 -91 91 -136 161 -172 265 -52 149 -52 313 0 462 36 105 82 175 172 266 67 67 98 89 175 127 152 73 298 92 457 60z"/> <path d="M981 1334 c-12 -15 -21 -34 -21 -44 0 -34 39 -70 75 -70 36 0 75 36 75 70 0 34 -39 70 -75 70 -24 0 -39 -7 -54 -26z"/> <path d="M877 1072 c-38 -42 -5 -82 66 -82 l47 0 0 -150 0 -150 -56 0 c-30 0 -64 -5 -75 -10 -26 -14 -26 -66 0 -80 26 -13 326 -13 352 0 26 14 26 66 0 80 -11 5 -45 10 -75 10 l-56 0 0 190 c0 221 6 210 -113 210 -59 0 -77 -4 -90 -18z"/> </g> </svg> 