 <svg  version="1.0" xmlns="http://www.w3.org/2000/svg"  width="186.000000pt" height="161.000000pt" viewBox="0 0 186.000000 161.000000"  preserveAspectRatio="xMidYMid meet">  <g transform="translate(0.000000,161.000000) scale(0.050000,-0.050000)" fill="#ffffff" stroke="none"> <path d="M1729 2971 c-38 -38 -49 -70 -49 -140 0 -60 -9 -91 -25 -91 -14 0 -168 18 -342 41 -174 22 -332 36 -352 29 -123 -39 -170 -226 -81 -320 69 -73 90 -75 433 -31 174 23 328 41 342 41 19 0 25 -61 25 -240 l0 -240 -580 0 -580 0 0 51 c0 159 -227 194 -279 43 -29 -82 -29 -1706 0 -1788 52 -151 279 -116 279 43 l0 51 1297 0 1297 0 23 -77 c36 -122 150 -158 234 -74 l49 49 0 902 0 902 -49 49 c-84 84 -198 48 -234 -74 l-23 -77 -567 0 -567 0 0 240 c0 132 7 240 15 240 8 0 155 -18 325 -40 413 -54 500 -26 500 160 0 186 -87 214 -500 160 -170 -22 -317 -40 -325 -40 -8 0 -15 32 -15 71 0 129 -67 208 -176 209 -14 0 -48 -22 -75 -49z m1401 -1751 l0 -500 -1305 0 -1305 0 0 500 0 500 1305 0 1305 0 0 -500z"/> </g> </svg> 