 <svg  version="1.0" xmlns="http://www.w3.org/2000/svg"  width="199.000000pt" height="201.000000pt" viewBox="0 0 199.000000 201.000000"  preserveAspectRatio="xMidYMid meet">  <g transform="translate(0.000000,201.000000) scale(0.050000,-0.050000)" fill="#ffffff" stroke="none"> <path d="M1867 3455 c-136 -101 -1704 -1498 -1715 -1528 -17 -44 40 -127 87 -127 21 0 95 49 165 109 l126 108 11 -663 c7 -470 18 -682 36 -724 50 -118 126 -205 229 -262 l104 -58 987 -6 c1496 -8 1442 -47 1443 1051 0 366 5 665 12 665 6 0 67 -49 135 -110 129 -116 170 -130 222 -79 76 76 57 97 -762 819 -1099 971 -978 881 -1080 805z m683 -717 l590 -522 0 -755 c0 -972 5 -961 -465 -961 l-235 0 0 539 0 539 -48 56 -48 56 -381 6 -380 6 -66 -59 -67 -60 -6 -541 -6 -542 -231 0 c-463 0 -467 9 -466 981 l1 729 594 524 c327 289 601 525 609 525 9 1 281 -234 605 -521z m-291 -1738 l2 -500 -310 0 -311 0 0 500 0 500 309 0 308 0 2 -500z"/> </g> </svg> 