 <svg  version="1.0" xmlns="http://www.w3.org/2000/svg"  width="300.000000pt" height="342.000000pt" viewBox="0 0 300.000000 342.000000"  preserveAspectRatio="xMidYMid meet">  <g transform="translate(0.000000,342.000000) scale(0.050000,-0.050000)" fill="#ffffff" stroke="none"> <path d="M781 6658 c-204 -76 -378 -147 -388 -157 -22 -22 -279 -2057 -264 -2096 6 -15 38 -39 71 -51 73 -28 72 48 10 -814 -68 -948 -69 -940 84 -940 26 0 46 -3 46 -8 0 -4 -40 -368 -90 -810 -106 -943 -105 -936 -45 -962 25 -10 266 -50 535 -89 270 -38 1111 -160 1870 -271 759 -111 1683 -245 2054 -299 l673 -98 197 28 c304 44 342 58 356 135 23 126 1 5851 -22 5874 -24 24 -42 27 -1638 261 -605 88 -1525 224 -2046 300 -1122 165 -953 165 -1403 -3z m821 -108 c181 -27 1129 -167 2108 -310 979 -143 1789 -263 1800 -267 11 -3 -30 -39 -90 -79 -109 -72 -112 -73 -230 -54 -66 11 -547 82 -1070 159 -522 76 -1443 211 -2045 300 -602 89 -1113 161 -1135 161 -78 0 -38 36 95 85 173 64 179 64 567 5z m-388 -321 c339 -50 918 -135 1286 -189 369 -54 1132 -166 1696 -249 564 -83 1030 -151 1035 -151 5 0 9 -395 9 -877 l0 -876 -115 15 c-63 9 -259 35 -435 57 -2057 267 -4324 564 -4342 570 -18 6 173 1677 202 1766 11 33 -39 38 664 -66z m4486 -3148 c0 -2610 -2 -2759 -35 -2769 -19 -5 -78 -16 -130 -23 l-95 -14 0 2698 0 2697 124 85 c68 47 127 85 130 85 3 0 6 -1241 6 -2759z m-3520 1009 c886 -116 1936 -252 2335 -304 l725 -94 0 -766 c0 -737 -1 -766 -38 -766 -20 0 -482 58 -1025 130 -543 71 -1437 189 -1987 261 -550 72 -1161 153 -1358 180 -198 27 -384 49 -415 49 -70 0 -70 -70 -7 821 27 390 50 711 50 714 0 2 25 0 55 -6 30 -5 780 -104 1665 -219z m513 -1800 c1131 -149 2167 -285 2302 -303 l245 -32 0 -838 c0 -656 -5 -837 -25 -837 -14 0 -673 95 -1465 210 -792 116 -1876 274 -2410 352 -533 78 -973 144 -976 147 -7 7 155 1508 167 1546 12 38 -32 43 2162 -245z"/> </g> </svg> 