<svg width="420" height="260" viewBox="0 0 420 260" fill="none" xmlns="http://www.w3.org/2000/svg">
  <!-- Background -->
  <rect width="420" height="260" rx="24" fill="#23272F"/>
  <rect x="0.5" y="0.5" width="419" height="259" rx="23.5" stroke="#4af3b8" stroke-width="2"/>
  <!-- Large arc pattern -->
  <circle cx="210" cy="260" r="180" fill="none" stroke="#4af3b8" stroke-width="2" opacity="0.12"/>
  <circle cx="210" cy="260" r="120" fill="none" stroke="#4af3b8" stroke-width="2" opacity="0.12"/>
  <!-- Contactless icon -->
  <g opacity="0.7">
    <path d="M370 48 q8 12 0 24" stroke="#4af3b8" stroke-width="3" fill="none"/>
    <path d="M362 52 q6 8 0 16" stroke="#4af3b8" stroke-width="2" fill="none"/>
    <path d="M355 56 q4 5 0 10" stroke="#4af3b8" stroke-width="1.5" fill="none"/>
  </g>
  <!-- Card Brand at Top Left -->
  <text x="36" y="48" font-size="28" fill="#fff" font-family="'Segoe UI', Arial, sans-serif" font-weight="bold">Ink Web Design</text>
  <!-- Chip (moved left) -->
  <rect x="38" y="90" width="44" height="32" rx="7" fill="#d4af37" stroke="#bfa43a" stroke-width="2"/>
  <rect x="46" y="98" width="28" height="16" rx="3" fill="#f5e7b2" opacity="0.5"/>
  <rect x="38" y="90" width="44" height="32" rx="7" fill="none" stroke="#fff" stroke-width="1" opacity="0.2"/>
  <line x1="50" y1="90" x2="50" y2="122" stroke="#bfa43a" stroke-width="2"/>
  <line x1="70" y1="90" x2="70" y2="122" stroke="#bfa43a" stroke-width="2"/>
  <!-- Card number (moved left) -->
  <text x="38" y="170" font-size="26" fill="#fff" font-family="'Segoe UI', Arial, sans-serif" letter-spacing="4">320 223 2731</text>
  <!-- Name and Mastercard circles inline (moved left) -->
  <text x="38" y="210" font-size="16" fill="#fff" font-family="'Segoe UI', Arial, sans-serif">Jordan B Imdieke</text>
  <g>
    <circle cx="320" cy="202" r="18" fill="#4af3b8" fill-opacity="0.8"/>
    <circle cx="344" cy="202" r="18" fill="#fff" fill-opacity="0.8"/>
  </g>
  <text x="38" y="230" font-size="13" fill="#bbb" font-family="'Segoe UI', Arial, sans-serif">jordan@inkwebdesign.com</text>
  <!-- CVV (optional, not usually on front) -->
  <!-- <text x="320" y="188" font-size="18" fill="#fff" font-family="'Segoe UI', Arial, sans-serif">CVV: 000</text> -->

</svg> 