<?xml version="1.0" standalone="no"?>
<!DOCTYPE svg PUBLIC "-//W3C//DTD SVG 20010904//EN"
 "http://www.w3.org/TR/2001/REC-SVG-20010904/DTD/svg10.dtd">
<svg version="1.0" xmlns="http://www.w3.org/2000/svg"
 width="260.000000pt" height="263.000000pt" viewBox="0 0 260.000000 263.000000"
 preserveAspectRatio="xMidYMid meet">
<metadata>
Created by potrace 1.10, written by Peter Selinger 2001-2011
</metadata>
<g transform="translate(0.000000,263.000000) scale(0.050000,-0.050000)"
fill="#e3c779" stroke="none">
<path d="M2063 4921 c-234 -141 -442 -274 -462 -295 -20 -21 -212 -136 -428
-256 -216 -119 -393 -228 -393 -241 0 -14 -15 -31 -34 -38 -18 -7 -185 -108
-370 -223 l-336 -211 0 -269 0 -268 105 1 c60 0 121 13 144 30 94 71 92 107
86 -1196 l-5 -1225 -80 -11 c-277 -39 -364 -473 -124 -620 100 -61 4768 -61
4868 0 91 56 126 136 126 291 0 244 -89 330 -345 330 l-155 0 0 1251 0 1250
98 -13 c306 -40 509 281 337 533 -34 49 -326 230 -1215 751 -1436 843 -1216
791 -1817 429z m457 -137 l0 -216 -245 -134 c-135 -74 -301 -165 -370 -204
l-125 -70 0 199 0 199 365 220 c201 121 367 221 370 221 3 1 5 -96 5 -215z
m1290 -443 c1303 -764 1244 -719 1162 -877 -90 -174 -56 -188 -1290 525
l-1002 579 0 217 c0 120 7 213 15 209 8 -5 510 -299 1115 -653z m-2210 -99 l0
-179 -309 -171 c-376 -210 -351 -210 -351 -6 l0 167 325 182 c179 101 327 183
330 184 3 0 5 -79 5 -177z m920 -372 l0 -510 -913 0 c-503 0 -907 6 -899 14
12 12 1792 1002 1807 1005 3 1 5 -228 5 -509z m1505 -267 l475 -273 0 -1305 0
-1305 -910 0 -910 0 0 1829 0 1829 435 -251 c239 -138 649 -374 910 -524z
m-3245 161 l0 -155 -272 -150 c-149 -82 -280 -152 -291 -156 -11 -4 -17 48
-13 129 l6 136 280 176 c154 97 282 176 285 176 3 0 5 -70 5 -156z m1740
-1064 l0 -500 -620 0 -620 0 0 -80 c0 -80 0 -80 80 -80 l80 0 0 -160 0 -160
-250 0 -250 0 0 160 0 160 90 0 90 0 0 80 0 80 -290 0 -290 0 0 500 0 500 990
0 990 0 0 -500z m-1740 -820 l0 -160 -120 0 -120 0 0 160 0 160 120 0 120 0 0
-160z m1320 0 l0 -160 -250 0 -250 0 0 160 0 160 250 0 250 0 0 -160z m420 0
l0 -160 -130 0 -130 0 0 160 0 160 130 0 130 0 0 -160z m-1400 -500 l0 -160
-290 0 -290 0 0 160 0 160 290 0 290 0 0 -160z m660 0 l0 -160 -250 0 -250 0
0 160 0 160 250 0 250 0 0 -160z m740 0 l0 -160 -290 0 -290 0 0 160 0 160
290 0 290 0 0 -160z m-1740 -490 l0 -170 -120 0 -120 0 0 170 0 170 120 0 120
0 0 -170z m660 0 l0 -170 -250 0 -250 0 0 157 c0 195 -17 183 263 183 l237 0
0 -170z m660 0 l0 -170 -250 0 -250 0 0 157 c0 195 -17 183 263 183 l237 0 0
-170z m416 -6 l6 -166 -126 6 -126 6 -6 138 c-8 192 -6 195 131 188 l115 -6 6
-166z m2453 -355 c43 -44 42 -224 -2 -272 -49 -54 -4671 -58 -4730 -4 -48 43
-52 229 -6 276 48 48 4690 48 4738 0z"/>
<path d="M2845 2205 l5 -655 740 0 740 0 5 655 6 655 -751 0 -751 0 6 -655z
m655 285 l0 -210 -240 0 -240 0 0 210 0 210 240 0 240 0 0 -210z m660 0 l0
-210 -240 0 -240 0 0 210 0 210 240 0 240 0 0 -210z m-660 -570 l0 -200 -240
0 -240 0 0 200 0 200 240 0 240 0 0 -200z m660 0 l0 -200 -240 0 -240 0 0 200
0 200 240 0 240 0 0 -200z"/>
</g>
</svg>
