 <svg  version="1.0" xmlns="http://www.w3.org/2000/svg"  width="262.000000pt" height="262.000000pt" viewBox="0 0 262.000000 262.000000"  preserveAspectRatio="xMidYMid meet">  <g transform="translate(0.000000,262.000000) scale(0.050000,-0.050000)" fill="#e6c97a" stroke="none"> <path d="M310 5162 c-175 -81 -250 -219 -250 -461 l0 -161 80 0 80 0 0 -2230 0 -2230 1061 0 c1148 0 1129 -2 1212 108 36 49 43 50 372 56 l335 6 0 -85 0 -85 410 0 410 0 0 159 c0 87 -9 181 -19 209 -18 47 -11 56 94 126 457 304 825 930 825 1405 0 70 8 82 88 129 196 114 226 428 52 537 -30 18 -40 47 -40 112 0 112 -45 206 -120 250 l-60 35 0 420 c0 605 30 578 -656 578 -636 0 -662 -16 -662 -410 0 -222 27 -304 118 -366 155 -105 380 10 380 196 l0 80 170 0 170 0 0 -241 0 -241 -78 -74 c-61 -58 -81 -95 -92 -169 l-15 -95 -657 0 -658 0 0 910 0 910 1160 0 1160 0 0 161 c0 242 -75 380 -250 461 -124 58 -4496 58 -4620 0z m4569 -159 c80 -42 141 -146 141 -238 l0 -65 -2400 0 -2400 0 0 65 c0 92 61 196 141 238 106 57 4412 57 4518 0z m-3419 -2033 l0 -1570 -530 0 -530 0 0 1570 0 1570 530 0 530 0 0 -1570z m1240 330 l0 -1241 -535 6 -535 5 -5 1235 -5 1235 540 0 540 0 0 -1240z m1956 556 c17 -17 24 -136 24 -410 l0 -386 -80 0 -80 0 0 330 0 330 -330 0 -330 0 0 -139 c0 -138 -27 -201 -87 -201 -58 0 -73 51 -73 250 0 130 9 211 24 226 34 34 898 34 932 0z m180 -1061 l6 -75 -241 0 -241 0 0 67 c0 94 3 95 249 89 l221 -6 6 -75z m128 -296 c69 -69 68 -156 -5 -229 -39 -39 -70 -40 -900 -46 l-859 -5 0 -80 0 -79 780 0 780 0 0 -48 c0 -440 -383 -1084 -783 -1319 l-89 -52 -97 50 c-212 107 -510 -10 -563 -221 l-12 -50 -338 0 -338 0 0 160 0 160 160 0 160 0 0 660 0 660 90 0 90 0 0 79 c0 78 0 79 -85 85 l-85 6 -6 165 -6 165 1023 0 1022 0 61 -61z m-2264 -679 l0 -80 -540 0 -540 0 0 67 c0 96 -19 93 553 93 l527 0 0 -80z m0 -590 l0 -330 -540 0 -540 0 0 330 0 330 540 0 540 0 0 -330z m-1240 -70 l0 -80 -530 0 -530 0 0 80 0 80 530 0 530 0 0 -80z m3 -430 c7 -160 10 -173 72 -235 l66 -65 361 -10 c400 -11 456 -30 391 -129 -27 -40 -43 -41 -990 -46 l-963 -5 0 330 0 330 528 0 528 0 7 -170z m917 -75 l0 -85 -345 6 c-401 6 -395 5 -395 82 0 79 0 79 395 80 l345 2 0 -85z m1374 -126 c58 -37 106 -142 106 -228 l0 -61 -250 0 -250 0 0 65 c0 212 221 338 394 224z"/> </g> </svg> 