 <svg  version="1.0" xmlns="http://www.w3.org/2000/svg"  width="259.000000pt" height="269.000000pt" viewBox="0 0 259.000000 269.000000"  preserveAspectRatio="xMidYMid meet">  <g transform="translate(0.000000,269.000000) scale(0.050000,-0.050000)" fill="#e6c97a" stroke="none"> <path d="M1170 5262 c-68 -30 -112 -91 -609 -857 -707 -1090 -704 -996 -58 -1587 221 -203 428 -393 460 -423 96 -89 79 -242 -28 -251 -92 -8 -75 76 -176 -852 -92 -842 -92 -850 27 -985 186 -213 762 -213 948 0 116 131 116 152 27 968 -106 959 -86 865 -182 865 l-79 0 0 105 1 105 448 409 c719 656 719 552 4 1651 -592 908 -610 928 -783 852z m-115 -2382 c-69 -110 -132 -200 -141 -200 -46 0 -693 627 -715 692 -36 111 -22 138 488 922 l483 743 5 -978 5 -979 -125 -200z m764 1433 c524 -809 531 -822 501 -931 -19 -72 -663 -702 -717 -702 -9 0 -72 89 -140 198 l-123 198 0 985 c0 542 3 982 7 977 4 -4 216 -331 472 -725z m-445 -1601 c129 -210 118 -232 -117 -232 -231 0 -243 25 -111 235 126 199 103 199 228 -3z m-34 -492 c0 -80 0 -80 -80 -80 -80 0 -80 0 -80 80 0 80 0 80 80 80 80 0 80 0 80 -80z m180 -268 c0 -15 32 -309 70 -652 39 -343 70 -628 70 -632 0 -4 -180 -8 -400 -8 -223 0 -400 8 -400 18 0 10 32 299 70 642 39 343 70 632 70 642 0 10 117 18 260 18 209 0 260 -5 260 -28z m120 -1478 c0 -168 -567 -224 -719 -72 -34 34 -56 70 -50 80 19 31 769 23 769 -8z"/> <path d="M2294 4941 c-213 -42 -277 -291 -111 -430 l60 -51 1160 0 c1218 0 1237 -1 1237 -90 0 -86 -39 -90 -791 -90 l-713 0 -68 -68 c-78 -78 -92 -188 -38 -293 62 -119 64 -119 1016 -119 923 0 934 -1 934 -95 0 -79 -61 -85 -865 -85 -919 0 -955 -9 -955 -240 0 -197 89 -240 500 -240 346 0 400 -12 400 -90 0 -84 -43 -90 -699 -90 l-621 0 0 -80 0 -80 642 0 c740 0 755 3 822 154 38 86 36 130 -9 221 -49 101 -100 114 -483 125 -385 11 -436 26 -380 115 21 32 89 36 830 45 878 11 868 10 939 126 49 81 49 167 0 248 -72 117 -54 115 -1019 126 -817 9 -889 13 -910 45 -63 100 -37 104 757 115 l734 10 69 75 c114 124 85 314 -59 382 -61 29 -196 33 -1216 33 -1206 1 -1204 1 -1194 92 7 58 7 58 162 64 l155 6 0 89 0 89 -105 -2 c-58 -2 -139 -9 -181 -17z"/> </g> </svg> 