 <svg  version="1.0" xmlns="http://www.w3.org/2000/svg"  width="255.000000pt" height="257.000000pt" viewBox="0 0 255.000000 257.000000"  preserveAspectRatio="xMidYMid meet">  <g transform="translate(0.000000,257.000000) scale(0.050000,-0.050000)" fill="#e6c97a" stroke="none"> <path d="M3550 5072 c-33 -14 -603 -538 -1266 -1164 -1108 -1045 -1215 -1141 -1310 -1170 -221 -67 -314 -134 -634 -450 l-310 -307 575 -575 575 -576 400 400 400 399 206 -205 205 -205 115 155 114 154 0 -694 0 -694 1200 0 1200 0 0 1680 0 1680 -460 0 -461 0 273 363 273 362 -408 410 c-469 472 -526 508 -687 437z m402 -374 l245 -243 -1033 -1377 c-1098 -1463 -1142 -1514 -1053 -1207 120 412 -164 808 -643 896 l-134 25 1038 977 c571 538 1085 1022 1142 1075 147 136 154 134 438 -146z m412 -580 l-72 -98 -65 63 -64 62 73 97 72 98 65 -63 64 -62 -73 -97z m-240 -320 l-72 -98 -65 63 -64 62 73 97 72 98 65 -63 64 -62 -73 -97z m-240 -320 l-72 -98 -65 63 -64 62 73 97 72 98 65 -63 64 -62 -73 -97z m-240 -320 l-72 -98 -65 63 -64 62 73 97 72 98 65 -63 64 -62 -73 -97z m1216 -1018 l0 -1200 -320 0 -320 0 0 440 0 440 -80 0 -80 0 0 -440 0 -440 -160 0 -160 0 0 360 0 360 -80 0 -80 0 0 -360 0 -360 -400 0 -400 0 0 400 0 401 600 799 600 800 440 0 440 0 0 -1200z m-1456 698 l-72 -98 -65 63 -64 62 73 97 72 98 65 -63 64 -62 -73 -97z m-240 -320 l-72 -98 -65 63 -64 62 73 97 72 98 65 -63 64 -62 -73 -97z m-1540 38 c306 -141 433 -444 300 -718 -27 -56 -171 -215 -393 -438 l-351 -349 -65 64 -64 65 362 365 c494 498 516 571 230 789 -308 235 -607 168 -1007 -229 l-257 -254 -64 66 -65 65 240 236 c401 394 772 505 1134 338z m1300 -358 l-72 -98 -65 63 -64 62 73 97 72 98 65 -63 64 -62 -73 -97z m-1497 70 c294 -100 293 -195 -7 -496 l-239 -242 -226 226 -225 226 133 127 c192 183 357 229 564 159z m1257 -390 l-72 -98 -65 63 -64 62 73 97 72 98 65 -63 64 -62 -73 -97z m-1834 -238 l219 -220 -64 -65 -65 -65 -224 225 -225 224 58 60 c76 79 50 93 301 -159z m1594 -82 l-72 -98 -65 63 -64 62 73 97 72 98 65 -63 64 -62 -73 -97z m556 -808 c0 -39 -151 -190 -190 -190 -23 0 -30 26 -30 110 l0 110 110 0 c84 0 110 -7 110 -30z m280 -5 c0 -108 173 -257 323 -277 182 -25 400 103 430 253 l12 59 408 0 407 0 0 -240 0 -240 -50 0 c-34 0 -50 11 -50 35 0 108 -173 257 -323 277 -182 25 -400 -103 -430 -253 l-12 -59 -609 0 -609 0 7 44 c4 31 27 51 72 63 120 35 250 170 303 318 24 65 121 81 121 20z m600 19 c0 -57 -127 -134 -220 -134 -80 0 -108 10 -159 59 -90 86 -81 91 159 91 121 0 220 -7 220 -16z m662 -376 c86 -83 77 -88 -162 -88 -237 0 -249 6 -165 84 102 95 230 97 327 4z"/> <path d="M3570 4762 c-236 -103 -166 -452 90 -452 292 0 318 430 28 461 -43 5 -96 1 -118 -9z m149 -171 c53 -64 -25 -162 -94 -119 -69 44 -45 148 35 148 19 0 46 -13 59 -29z"/> <path d="M2379 3548 c-148 -138 -282 -264 -298 -279 -29 -29 36 -129 84 -129 27 0 575 525 575 551 0 12 -21 42 -46 66 l-47 43 -268 -252z"/> <path d="M1785 2992 l-75 -69 49 -51 c63 -68 80 -66 161 18 l67 70 -47 50 c-60 64 -66 63 -155 -18z"/> <path d="M4530 3161 c-124 -51 -140 -98 -146 -453 l-7 -328 82 0 81 0 0 296 c0 320 7 344 104 344 52 0 56 6 56 80 0 85 -59 107 -170 61z"/> <path d="M3744 2530 l6 -409 65 -66 c176 -175 390 -50 402 235 l7 170 -81 0 -81 0 -6 -143 c-7 -157 -41 -209 -111 -165 -31 20 -36 66 -40 405 l-6 383 -81 0 -80 0 6 -410z"/> <path d="M4540 1764 c0 -491 -3 -504 -104 -504 -52 0 -56 -5 -56 -83 l0 -82 92 10 c69 8 109 27 155 73 l63 63 6 489 6 490 -81 0 -81 0 0 -456z"/> <path d="M2940 1500 l0 -400 80 0 80 0 0 400 0 400 -80 0 -80 0 0 -400z"/> <path d="M3180 460 c0 -80 0 -80 80 -80 80 0 80 0 80 80 0 80 0 80 -80 80 -80 0 -80 0 -80 -80z"/> </g> </svg> 