 <svg  version="1.0" xmlns="http://www.w3.org/2000/svg"  width="266.000000pt" height="265.000000pt" viewBox="0 0 266.000000 265.000000"  preserveAspectRatio="xMidYMid meet">  <g transform="translate(0.000000,265.000000) scale(0.050000,-0.050000)" fill="#e6c97a" stroke="none"> <path d="M100 5010 l0 -250 80 0 80 0 0 -2230 0 -2230 -80 0 c-80 0 -80 0 -80 -80 l0 -80 2560 0 2560 0 0 80 c0 80 0 80 -80 80 l-80 0 0 1410 0 1410 80 0 80 0 0 240 0 240 -660 0 -660 0 0 580 0 580 80 0 80 0 0 250 0 250 -1980 0 -1980 0 0 -250z m3796 5 l-6 -85 -1810 0 -1810 0 -6 85 -6 85 1822 0 1822 0 -6 -85z m-156 -1075 l0 -820 570 0 570 0 0 -1410 0 -1410 -160 0 -160 0 0 1080 0 1080 80 0 c80 0 80 0 80 80 l0 80 -2060 0 -2060 0 0 -80 c0 -80 0 -80 80 -80 l80 0 0 -1080 0 -1080 -160 0 -160 0 0 2230 0 2230 1650 0 1650 0 0 -820z m1320 -580 l0 -80 -580 0 -580 0 0 80 0 80 580 0 580 0 0 -80z m-670 -990 l0 -80 -1730 0 -1730 0 -6 57 c-14 122 -143 114 1740 108 l1726 -5 0 -80z m10 -330 l0 -80 -1570 0 -1570 0 0 -80 0 -80 1565 -5 1565 -5 0 -80 0 -80 -1730 0 -1730 0 0 80 c0 80 0 80 86 86 133 10 124 150 -11 160 -85 6 -85 7 -85 85 l0 79 1740 0 1740 0 0 -80z m0 -660 l0 -80 -1740 0 -1740 0 0 80 0 80 1740 0 1740 0 0 -80z m-10 -330 l0 -80 -1730 0 -1730 0 -6 57 c-14 122 -143 114 1740 108 l1726 -5 0 -80z m10 -329 c0 -78 0 -79 -85 -85 -135 -10 -144 -150 -11 -160 86 -6 86 -6 92 -91 l6 -85 -1742 0 -1742 0 6 85 6 85 1565 5 1565 5 0 80 0 80 -1570 0 -1570 0 0 80 0 80 1740 0 1740 0 0 -79z"/> <path d="M933 4427 c-7 -8 -13 -269 -13 -580 l0 -567 -160 0 -160 0 0 -80 0 -80 1480 0 1480 0 0 80 0 80 -160 0 -160 0 0 580 0 580 -1147 0 c-630 0 -1152 -6 -1160 -13z m1067 -367 l0 -200 -80 0 c-80 0 -80 0 -80 -80 0 -80 0 -80 80 -80 l80 0 0 -210 0 -210 -450 0 -450 0 0 210 0 210 280 0 280 0 0 80 0 80 -280 0 -280 0 0 200 0 200 450 0 450 0 0 -200z m1080 -290 l0 -490 -460 0 -460 0 0 490 0 490 460 0 460 0 0 -490z"/> </g> </svg> 