 <svg  version="1.0" xmlns="http://www.w3.org/2000/svg"  width="264.000000pt" height="266.000000pt" viewBox="0 0 264.000000 266.000000"  preserveAspectRatio="xMidYMid meet">  <g transform="translate(0.000000,266.000000) scale(0.050000,-0.050000)" fill="#e6c97a" stroke="none"> <path d="M1069 5162 c-232 -105 -242 -150 -278 -1342 -17 -545 -36 -1091 -43 -1214 l-12 -224 -64 -21 c-200 -66 -311 -342 -222 -554 l30 -72 -136 -163 c-376 -449 -363 -754 51 -1177 302 -308 289 -304 910 -311 l515 -6 0 80 c0 80 0 80 -85 86 l-85 6 -7 230 -6 230 -164 131 c-220 176 -244 225 -284 569 -34 290 -33 304 21 450 44 119 26 233 -57 356 l-66 97 189 1058 c104 583 198 1071 210 1085 36 45 879 -810 851 -862 -69 -128 18 -348 168 -426 l55 -29 0 -285 0 -284 -94 -30 c-53 -17 -110 -53 -132 -83 -45 -61 -274 -1164 -274 -1318 0 -67 -11 -103 -40 -129 -262 -237 -83 -792 291 -901 185 -54 2428 -34 2549 23 320 151 438 571 238 847 l-58 81 0 390 c0 434 -12 493 -118 568 -53 38 -62 57 -62 132 0 214 -100 250 -704 250 l-453 0 -43 59 c-25 36 -74 70 -121 84 l-79 23 0 564 c0 856 71 762 -1050 1399 -523 297 -821 478 -860 522 -120 137 -323 183 -481 111z m311 -179 c172 -126 105 -403 -105 -436 -230 -37 -370 224 -214 401 87 99 212 113 319 35z m998 -625 c824 -468 809 -458 871 -584 51 -102 51 -103 51 -658 l0 -556 -290 0 -290 0 0 289 0 290 55 29 c378 197 147 724 -265 602 -32 -9 -125 73 -467 416 l-426 427 14 75 c17 93 -58 126 747 -330z m-1163 22 c81 0 95 130 -108 -1015 -159 -897 -218 -1164 -196 -880 5 58 18 429 29 825 11 396 25 816 32 933 l12 213 83 -37 c46 -21 112 -38 148 -39z m1539 -803 c100 -95 25 -277 -114 -277 -137 0 -210 174 -117 274 58 61 167 62 231 3z m747 -1198 c37 -19 39 -47 39 -578 l0 -558 -605 -7 c-457 -4 -616 -12 -652 -33 -25 -14 -50 -23 -55 -18 -24 25 220 1147 257 1180 46 41 943 54 1016 14z m-2509 -227 c149 -149 52 -412 -151 -412 -155 0 -261 97 -261 240 0 215 260 324 412 172z m3684 44 c13 -13 24 -49 24 -80 l0 -56 -330 0 -330 0 0 -80 0 -80 386 0 c475 0 434 36 434 -382 l0 -334 -93 28 c-69 21 -219 28 -570 28 l-477 0 0 330 0 330 80 0 c80 0 80 0 80 80 0 80 0 80 -80 80 -80 0 -80 0 -80 80 l0 80 466 0 c336 0 473 -7 490 -24z m-3925 -618 c64 -16 105 -16 159 2 95 31 90 41 123 -244 38 -331 79 -415 289 -589 180 -149 189 -167 78 -167 -80 0 -80 0 -80 -80 0 -80 0 -80 80 -80 l80 0 0 -92 0 -92 -325 8 c-392 9 -393 9 -642 262 -263 266 -327 477 -219 714 57 127 301 406 340 391 17 -6 70 -21 117 -33z m3949 -520 c372 -84 450 -561 124 -752 l-94 -56 -1180 0 -1180 0 -84 45 c-335 179 -276 658 93 758 117 31 2185 37 2321 5z"/> <path d="M2524 1994 c-24 -125 -44 -273 -44 -330 l0 -104 490 0 490 0 0 330 0 330 -446 0 -446 0 -44 -226z m776 -94 l0 -160 -331 0 c-306 0 -331 3 -321 35 5 19 20 91 33 160 l24 125 298 0 297 0 0 -160z"/> <path d="M3880 1650 l0 -90 160 0 160 0 0 90 0 90 -160 0 -160 0 0 -90z"/> <path d="M4380 1650 l0 -90 160 0 160 0 0 90 0 90 -160 0 -160 0 0 -90z"/> <path d="M2400 943 c-227 -122 -224 -457 5 -576 95 -49 242 -41 331 18 74 49 75 49 126 11 112 -84 275 -81 386 6 l52 41 52 -41 c112 -88 273 -90 389 -4 54 40 57 40 103 4 109 -86 283 -89 394 -6 52 38 53 38 104 0 226 -170 532 0 513 285 -16 254 -303 393 -507 244 l-57 -41 -59 42 c-96 68 -263 71 -358 6 l-76 -52 -59 44 c-94 69 -269 74 -364 8 l-75 -51 -75 51 c-95 66 -270 61 -364 -8 l-59 -44 -74 50 c-91 61 -227 67 -328 13z m271 -172 c146 -146 -74 -369 -225 -228 -67 64 -64 180 7 236 71 56 157 53 218 -8z m458 37 c39 -16 91 -110 91 -168 0 -106 -175 -180 -264 -113 -153 117 -9 350 173 281z m525 -33 c61 -66 72 -125 38 -192 -68 -130 -270 -107 -302 36 -34 155 160 270 264 156z m493 4 c40 -32 53 -60 53 -114 0 -151 -165 -222 -271 -116 -145 145 57 356 218 230z m504 -8 c148 -148 -72 -371 -225 -228 -100 95 -25 277 114 277 39 0 80 -18 111 -49z"/> </g> </svg> 