 <svg  version="1.0" xmlns="http://www.w3.org/2000/svg"  width="254.000000pt" height="250.000000pt" viewBox="0 0 254.000000 250.000000"  preserveAspectRatio="xMidYMid meet">  <g transform="translate(0.000000,250.000000) scale(0.050000,-0.050000)" fill="#e6c97a" stroke="none"> <path d="M2938 4894 c-113 -62 -1772 -1201 -1828 -1256 -205 -200 88 -511 323 -343 35 25 69 45 75 45 7 0 12 -400 12 -890 0 -820 -3 -890 -34 -890 -18 0 -336 95 -706 210 -370 116 -679 210 -686 210 -8 0 -14 -346 -14 -770 l0 -770 720 0 719 0 66 -71 c79 -85 181 -109 274 -63 54 27 69 28 116 3 70 -36 140 -36 210 0 47 25 62 24 116 -3 93 -46 195 -22 274 63 l66 71 339 0 339 0 80 -118 c174 -257 307 -322 654 -322 290 0 353 20 516 163 255 224 184 437 -146 437 -177 0 -183 8 -183 240 0 232 6 240 183 240 302 0 398 203 189 398 l-52 49 0 906 c0 499 5 907 12 907 6 0 40 -20 75 -45 166 -118 383 -14 383 184 0 138 17 124 -995 814 -944 643 -982 663 -1097 601z m1026 -746 c898 -612 940 -645 902 -706 -42 -67 -107 -30 -955 548 l-870 593 -871 -593 c-478 -326 -885 -590 -903 -586 -49 9 -81 70 -57 108 26 41 1791 1246 1827 1247 15 1 432 -275 927 -611z m-242 -223 l668 -455 6 -235 5 -235 -1361 0 -1361 0 5 234 6 235 668 455 c368 251 675 456 682 456 8 0 314 -205 682 -455z m678 -1682 l0 -597 -105 36 c-179 62 -445 35 -611 -63 -37 -21 -70 -39 -75 -39 -5 0 -9 248 -9 550 l0 550 -560 0 -560 0 0 -560 0 -560 -400 0 -400 0 0 640 0 640 1360 0 1360 0 0 -597z m-1440 117 l0 -160 -160 0 -160 0 0 160 0 160 160 0 160 0 0 -160z m480 0 l0 -160 -160 0 -160 0 0 160 0 160 160 0 160 0 0 -160z m-480 -480 l0 -160 -160 0 -160 0 0 160 0 160 160 0 160 0 0 -160z m480 0 l0 -160 -160 0 -160 0 0 160 0 160 160 0 160 0 0 -160z m-2590 -299 l500 -157 6 -92 6 -92 -272 0 c-373 0 -370 3 -370 -369 l0 -271 -240 0 -240 0 0 582 0 581 55 -12 c30 -7 280 -83 555 -170z m2110 -176 l-1 -155 -37 80 c-44 95 -107 157 -202 198 l-70 30 155 1 155 1 0 -155z m480 84 c0 -134 -102 -249 -221 -249 l-99 0 0 160 0 160 160 0 160 0 0 -71z m892 5 c107 -54 235 -182 222 -221 -4 -14 -74 -27 -171 -34 -151 -10 -169 -15 -228 -75 l-65 -65 0 -259 0 -259 65 -65 c59 -60 77 -65 228 -75 199 -13 212 -34 95 -145 -286 -272 -710 -221 -949 114 l-89 125 0 304 c0 338 1 340 158 507 199 211 493 271 734 148z m-1651 -124 c109 -57 186 -450 88 -450 -54 0 -129 93 -129 160 0 39 -18 80 -49 111 l-49 49 -511 0 -511 0 0 80 0 80 551 0 c453 0 561 -5 610 -30z m-201 -326 c0 -19 16 -68 36 -107 l36 -71 -51 27 c-66 35 -137 34 -206 -2 -48 -25 -62 -25 -110 0 -70 36 -140 37 -210 0 -47 -25 -62 -24 -116 3 -144 71 -315 -31 -334 -202 l-10 -92 -318 0 -317 0 0 240 0 240 800 0 c755 0 800 -2 800 -36z m800 -204 l0 -240 -320 0 -320 0 0 65 c0 36 -12 88 -27 116 l-27 51 71 -36 c175 -89 303 -16 303 173 l0 111 160 0 160 0 0 -240z m-1461 -108 c73 -89 -9 -333 -94 -280 -80 50 -51 308 35 308 19 0 46 -13 59 -28z m320 0 c73 -89 -9 -333 -94 -280 -80 50 -51 308 35 308 19 0 46 -13 59 -28z m320 0 c73 -89 -9 -333 -94 -280 -80 50 -51 308 35 308 19 0 46 -13 59 -28z"/> <path d="M2640 3560 l0 -400 400 0 400 0 0 400 0 400 -400 0 -400 0 0 -400z m320 160 c0 -80 0 -80 -80 -80 -80 0 -80 0 -80 80 0 80 0 80 80 80 80 0 80 0 80 -80z m320 0 c0 -80 0 -80 -80 -80 -80 0 -80 0 -80 80 0 80 0 80 80 80 80 0 80 0 80 -80z m-320 -320 c0 -80 0 -80 -80 -80 -80 0 -80 0 -80 80 0 80 0 80 80 80 80 0 80 0 80 -80z m320 0 c0 -80 0 -80 -80 -80 -80 0 -80 0 -80 80 0 80 0 80 80 80 80 0 80 0 80 -80z"/> <path d="M1840 2280 l0 -240 240 0 240 0 0 240 0 240 -240 0 -240 0 0 -240z m320 0 c0 -80 0 -80 -80 -80 -80 0 -80 0 -80 80 0 80 0 80 80 80 80 0 80 0 80 -80z"/> <path d="M3760 2280 l0 -240 240 0 240 0 0 240 0 240 -240 0 -240 0 0 -240z m320 0 c0 -80 0 -80 -80 -80 -80 0 -80 0 -80 80 0 80 0 80 80 80 80 0 80 0 80 -80z"/> </g> </svg> 