 <svg  version="1.0" xmlns="http://www.w3.org/2000/svg"  width="264.000000pt" height="262.000000pt" viewBox="0 0 264.000000 262.000000"  preserveAspectRatio="xMidYMid meet">  <g transform="translate(0.000000,262.000000) scale(0.050000,-0.050000)" fill="#e6c97a" stroke="none"> <path d="M2360 5168 c-1767 -225 -2801 -2111 -2015 -3678 1024 -2044 4002 -1832 4725 337 578 1736 -909 3570 -2710 3341z m735 -198 c1606 -308 2440 -2141 1615 -3550 -966 -1648 -3352 -1568 -4215 140 -883 1747 667 3780 2600 3410z"/> <path d="M2301 4658 c-265 -46 -668 -209 -805 -323 l-55 -45 49 -60 c49 -59 50 -59 105 -24 1725 1104 3735 -906 2631 -2631 -35 -55 -35 -56 24 -105 l60 -49 44 54 c298 361 427 1138 279 1675 -283 1019 -1318 1689 -2332 1508z"/> <path d="M2520 3839 c-329 -139 -235 -629 120 -629 325 0 443 399 176 596 -62 46 -222 64 -296 33z m186 -162 c187 -100 68 -378 -127 -297 -131 55 -136 223 -9 296 51 29 82 30 136 1z"/> <path d="M899 3726 c-846 -1325 70 -3089 1641 -3160 455 -20 983 124 1245 340 l54 44 -49 60 c-49 59 -50 59 -105 24 -1162 -744 -2678 -79 -2915 1278 -78 449 33 991 273 1331 49 71 47 82 -23 134 l-60 44 -61 -95z"/> <path d="M2233 3027 c-7 -8 -13 -120 -13 -250 l0 -237 90 0 90 0 0 -330 0 -330 -90 0 -90 0 0 -250 0 -250 420 0 420 0 0 250 0 250 -90 0 -90 0 0 580 0 580 -317 0 c-174 0 -322 -6 -330 -13z m487 -737 l0 -570 80 0 80 0 0 -90 0 -90 -240 0 -240 0 0 90 0 90 80 0 80 0 0 490 0 490 -80 0 c-80 0 -80 0 -80 80 l0 80 160 0 160 0 0 -570z"/> </g> </svg> 