 <svg  version="1.0" xmlns="http://www.w3.org/2000/svg"  width="262.000000pt" height="266.000000pt" viewBox="0 0 262.000000 266.000000"  preserveAspectRatio="xMidYMid meet">  <g transform="translate(0.000000,266.000000) scale(0.050000,-0.050000)" fill="#e6c97a" stroke="none"> <path d="M160 5100 l0 -80 1760 0 1760 0 0 -190 0 -190 -260 -520 c-143 -286 -260 -524 -260 -530 0 -5 414 -10 920 -10 506 0 920 5 920 10 0 6 -117 244 -260 530 l-260 520 0 190 0 190 160 0 160 0 0 80 0 80 -2320 0 -2320 0 0 -80z m4160 -240 l0 -160 -240 0 -240 0 0 160 0 160 240 0 240 0 0 -160z m225 -710 c107 -215 195 -395 195 -400 0 -6 -297 -10 -660 -10 -363 0 -660 4 -660 10 0 5 88 185 195 400 l195 390 270 0 270 0 195 -390z"/> <path d="M160 4460 l0 -80 120 0 120 0 0 -245 0 -245 -59 -33 c-248 -141 -142 -597 139 -597 281 0 387 456 139 597 l-59 33 0 245 0 245 280 0 280 0 0 -245 0 -245 -59 -33 c-83 -48 -114 -122 -157 -374 l-38 -223 334 0 334 0 -38 223 c-43 252 -74 326 -157 374 l-59 33 0 245 0 245 160 0 160 0 0 80 0 80 -720 0 -720 0 0 -80z m390 -748 c124 -90 6 -345 -125 -271 -107 61 -64 299 55 299 18 0 49 -12 70 -28z m716 3 c29 -22 74 -185 74 -268 0 -20 -35 -27 -140 -27 -157 0 -152 -7 -120 162 20 108 59 158 120 158 18 0 47 -11 66 -25z"/> <path d="M2024 3879 c-219 -68 -264 -201 -264 -794 l0 -465 -751 0 -751 0 -49 -49 -49 -49 0 -1151 0 -1151 2480 0 2480 0 0 1151 0 1151 -49 49 c-45 44 -65 49 -221 49 l-173 0 42 59 c24 33 53 105 67 160 23 99 25 101 99 101 74 0 75 1 75 80 0 80 0 80 -80 80 -59 0 -80 8 -80 31 0 17 -22 53 -49 80 l-49 49 -542 0 -542 0 -49 -49 c-27 -27 -49 -63 -49 -80 0 -23 -21 -31 -80 -31 -80 0 -80 0 -80 -80 0 -79 1 -80 75 -80 74 0 76 -2 99 -101 14 -55 43 -127 67 -160 l42 -59 -702 0 -701 0 0 80 c0 80 0 80 -80 80 -80 0 -80 0 -80 -80 l0 -80 -81 0 -81 0 6 490 6 489 65 66 c176 175 390 50 402 -235 l7 -170 -82 0 -82 0 0 -80 0 -80 240 0 240 0 0 80 c0 80 0 80 -78 80 l-77 0 -8 186 c-15 340 -239 522 -533 433z m2613 -918 c-16 -271 -103 -331 -477 -331 -374 0 -461 60 -477 331 l-8 139 485 0 485 0 -8 -139z m323 -581 l0 -80 -2320 0 -2320 0 0 80 0 80 2320 0 2320 0 0 -80z m-4480 -351 c0 -182 42 -209 320 -209 278 0 320 27 320 209 l0 111 80 0 80 0 0 -400 0 -400 -480 0 -480 0 0 400 0 400 80 0 80 0 0 -111z m480 31 l0 -80 -160 0 -160 0 0 80 0 80 160 0 160 0 0 -80z m1280 -800 l0 -880 -400 0 -400 0 0 880 0 880 400 0 400 0 0 -880z m960 0 l0 -880 -400 0 -400 0 0 880 0 880 400 0 400 0 0 -880z m1760 0 l0 -880 -80 0 -80 0 0 671 0 671 -49 49 c-40 40 -69 49 -160 49 -87 0 -111 7 -111 31 0 17 -22 53 -49 80 -117 117 -591 53 -591 -80 0 -24 -24 -31 -111 -31 -91 0 -120 -9 -160 -49 l-49 -49 0 -671 0 -671 -80 0 -80 0 0 880 0 880 800 0 800 0 0 -880z m-640 480 l0 -80 -160 0 -160 0 0 80 0 80 160 0 160 0 0 -80z m-480 -111 c0 -133 474 -197 591 -80 27 27 49 63 49 80 0 23 21 31 80 31 l80 0 0 -640 0 -640 -480 0 -480 0 0 640 0 640 80 0 c59 0 80 -8 80 -31z m-3360 -560 c0 -182 42 -209 320 -209 278 0 320 27 320 209 l0 111 80 0 80 0 0 -400 0 -400 -480 0 -480 0 0 400 0 400 80 0 80 0 0 -111z m480 31 l0 -80 -160 0 -160 0 0 80 0 80 160 0 160 0 0 -80z"/> <path d="M1920 1340 l0 -160 80 0 80 0 0 160 0 160 -80 0 -80 0 0 -160z"/> <path d="M2560 1340 l0 -160 80 0 80 0 0 160 0 160 -80 0 -80 0 0 -160z"/> </g> </svg> 