 <svg  version="1.0" xmlns="http://www.w3.org/2000/svg"  width="606.000000pt" height="570.000000pt" viewBox="0 0 606.000000 570.000000"  preserveAspectRatio="xMidYMid meet">  <g transform="translate(0.000000,570.000000) scale(0.100000,-0.100000)" fill="#ffffff" stroke="none"> <path d="M4571 5072 c-57 -22 -127 -90 -153 -149 -13 -29 -22 -77 -26 -129 l-5 -82 -61 -22 c-215 -75 -341 -214 -390 -427 -35 -155 -14 -272 51 -290 36 -10 960 -10 996 0 46 13 67 60 67 149 0 257 -140 471 -363 553 -108 40 -102 34 -102 110 0 61 2 69 28 91 28 24 29 24 275 25 136 0 275 1 310 1 70 0 107 -17 122 -58 14 -35 13 -1611 0 -1619 -19 -12 -2798 -7 -2820 5 -11 6 -20 17 -20 25 0 7 -22 36 -48 63 -80 82 -80 82 -575 82 l-428 1 -52 -24 c-61 -28 -95 -58 -131 -116 -14 -22 -32 -41 -39 -42 -6 0 -152 0 -323 1 -194 1 -335 -3 -376 -10 -153 -27 -247 -146 -236 -297 7 -99 62 -179 163 -239 17 -10 19 -44 26 -535 6 -488 8 -529 28 -595 73 -251 222 -457 439 -603 34 -23 62 -45 62 -49 0 -4 -36 -44 -80 -90 -67 -69 -80 -88 -80 -115 0 -45 53 -97 99 -97 28 0 48 15 149 115 64 63 118 115 121 115 4 0 29 -8 56 -18 47 -16 167 -17 1775 -20 1607 -3 1732 -2 1833 14 l108 18 97 -96 c112 -110 136 -128 173 -128 33 0 89 59 89 94 0 29 -42 87 -109 149 -28 27 -51 52 -51 57 0 5 28 28 63 51 174 118 310 281 390 468 69 160 68 155 76 730 7 491 9 525 26 535 10 6 38 27 64 47 140 108 132 339 -14 441 -49 34 -99 49 -182 53 -35 1 -66 5 -69 7 -2 3 -5 376 -7 829 -2 820 -2 824 -24 871 -29 63 -93 123 -159 148 -51 19 -76 20 -387 19 -285 0 -338 -3 -376 -17z m-21 -553 c157 -25 273 -146 305 -316 6 -28 3 -34 -18 -42 -14 -5 -175 -10 -359 -11 -262 0 -337 2 -352 13 -17 12 -17 16 -1 77 21 82 34 105 88 166 62 69 152 111 262 123 6 0 39 -4 75 -10z m-2297 -1308 c10 0 32 -14 48 -30 l29 -29 0 -431 c0 -236 -4 -432 -9 -435 -12 -8 -912 -8 -920 -1 -11 12 -13 821 -1 863 10 39 32 56 84 64 18 3 727 2 769 -1z m-1060 -195 c17 -17 22 -112 7 -150 l-10 -26 -336 0 -336 0 -29 29 c-48 49 -37 120 24 146 47 21 659 21 680 1z m4451 0 c64 -26 76 -97 27 -147 l-30 -29 -1557 2 -1558 3 -7 31 c-10 53 1 142 20 147 9 2 703 5 1543 6 1305 1 1533 -1 1562 -13z m-137 -378 c23 -19 13 -938 -10 -1023 -85 -302 -290 -521 -577 -613 -36 -12 -117 -26 -180 -32 -74 -6 -676 -10 -1685 -10 -1634 1 -1681 2 -1820 42 -66 20 -180 78 -241 123 -123 93 -207 195 -269 328 -78 170 -78 163 -82 695 -4 360 -2 476 7 487 10 13 58 15 276 15 182 0 265 -3 270 -11 3 -6 7 -201 8 -434 2 -469 2 -465 69 -483 18 -5 291 -9 610 -8 l577 1 27 28 28 27 2 408 c2 224 3 421 3 439 l0 32 78 3 c42 2 711 2 1486 0 1065 -2 1413 -5 1423 -14z m-3179 -631 c2 -50 -1 -84 -9 -93 -10 -12 -82 -14 -458 -14 -299 1 -450 5 -458 12 -16 13 -18 131 -3 159 11 19 24 19 468 17 l457 -3 3 -78z"/> </g> </svg> 