<?xml version="1.0" standalone="no"?>
<!DOCTYPE svg PUBLIC "-//W3C//DTD SVG 20010904//EN"
 "http://www.w3.org/TR/2001/REC-SVG-20010904/DTD/svg10.dtd">
<svg version="1.0" xmlns="http://www.w3.org/2000/svg"
 width="156.000000pt" height="183.000000pt" viewBox="0 0 156.000000 183.000000"
 preserveAspectRatio="xMidYMid meet">
<metadata>
Created by potrace 1.10, written by Peter Selinger 2001-2011
</metadata>
<g transform="translate(0.000000,183.000000) scale(0.100000,-0.100000)"
fill="#ffffff" stroke="none">
<path d="M1020 1664 c-19 -16 -213 -185 -432 -376 -431 -377 -429 -375 -391
-441 31 -53 49 -57 257 -57 149 0 186 -3 178 -12 -25 -32 -245 -566 -246 -597
0 -65 82 -111 141 -78 20 11 731 629 815 708 32 30 38 42 38 77 0 29 -7 49
-24 69 l-24 28 -202 3 c-154 2 -199 6 -192 15 24 32 242 566 242 594 0 46 -36
83 -86 90 -34 4 -45 1 -74 -23z m98 -30 c14 -9 22 -26 22 -43 0 -15 -49 -142
-110 -283 -60 -141 -112 -268 -116 -283 -5 -20 -1 -32 17 -51 22 -24 25 -24
197 -24 192 0 212 -5 212 -59 0 -33 -23 -56 -350 -341 -140 -122 -282 -246
-315 -275 -119 -105 -172 -145 -192 -145 -23 0 -53 30 -57 57 -3 17 23 87 71
193 61 135 163 381 163 394 0 8 -12 24 -26 35 -25 19 -40 21 -197 21 -145 0
-173 3 -189 17 -25 22 -23 67 5 96 19 22 691 610 775 680 38 31 58 34 90 11z"/>
</g>
</svg>
