<?xml version="1.0" standalone="no"?>
<!DOCTYPE svg PUBLIC "-//W3C//DTD SVG 20010904//EN"
 "http://www.w3.org/TR/2001/REC-SVG-20010904/DTD/svg10.dtd">
<svg version="1.0" xmlns="http://www.w3.org/2000/svg"
 width="900.000000pt" height="831.000000pt" viewBox="0 0 900.000000 831.000000"
 preserveAspectRatio="xMidYMid meet">
<metadata>
Created by potrace 1.10, written by Peter Selinger 2001-2011
</metadata>
<g transform="translate(0.000000,831.000000) scale(0.100000,-0.100000)"
fill="#ffffff" stroke="none">
<path d="M6115 7620 c-78 -18 -118 -30 -180 -54 -16 -7 -77 -27 -135 -45 -58
-19 -120 -40 -138 -47 -18 -8 -41 -14 -52 -14 -11 0 -34 -6 -52 -14 -48 -21
-183 -67 -353 -121 -82 -26 -181 -59 -220 -72 -38 -14 -83 -28 -100 -33 -16
-5 -49 -15 -71 -24 -23 -8 -106 -35 -185 -60 -79 -25 -196 -63 -259 -84 -63
-22 -203 -68 -310 -102 -107 -35 -208 -69 -225 -76 -16 -7 -77 -27 -135 -45
-58 -17 -136 -43 -175 -56 -38 -14 -86 -28 -106 -32 -57 -12 -210 -90 -263
-135 -28 -22 -89 -95 -138 -161 -89 -122 -234 -321 -379 -520 -44 -60 -100
-139 -124 -175 -24 -36 -65 -90 -89 -120 -170 -206 -220 -328 -220 -540 0
-153 26 -256 90 -360 12 -20 46 -83 76 -140 30 -58 65 -123 78 -145 23 -41 96
-174 140 -256 14 -26 40 -73 59 -104 32 -55 33 -59 23 -109 -6 -28 -18 -96
-27 -151 -35 -221 -40 -240 -54 -240 -9 0 -24 25 -37 62 -29 81 -85 193 -306
613 -37 69 -81 154 -100 190 -66 130 -125 190 -226 229 -51 21 -68 21 -696 21
-571 0 -648 -2 -692 -17 -98 -33 -171 -98 -220 -199 -26 -54 -29 -68 -28 -159
1 -106 9 -132 66 -221 34 -52 112 -110 183 -135 53 -18 84 -19 536 -19 484 1
509 -1 509 -34 0 -6 6 -22 13 -36 8 -14 47 -88 87 -165 40 -77 90 -172 111
-211 21 -40 66 -125 100 -190 34 -66 90 -173 125 -239 35 -66 78 -149 97 -185
105 -202 167 -320 189 -360 87 -156 88 -159 79 -182 -5 -13 -12 -48 -15 -78
-4 -30 -13 -84 -20 -120 -8 -36 -21 -108 -30 -160 -22 -124 -44 -239 -62 -321
-8 -37 -14 -78 -14 -92 0 -13 -6 -55 -14 -93 -8 -38 -22 -114 -31 -169 -9 -55
-23 -136 -31 -180 -71 -381 -68 -360 -55 -424 27 -123 102 -221 209 -272 61
-30 76 -33 163 -33 105 -1 152 13 224 69 98 74 141 152 159 285 4 25 13 82 21
128 8 45 22 121 30 170 9 48 22 119 29 157 8 39 20 99 27 135 7 36 15 88 20
115 4 28 16 102 28 165 12 63 26 151 31 195 6 44 13 93 18 108 l7 28 1150 0
1150 0 -3 -108 c-6 -188 36 -363 129 -540 91 -173 187 -285 349 -407 135 -102
247 -154 449 -208 103 -28 380 -30 486 -4 187 47 327 109 450 200 99 73 182
152 243 231 25 33 49 62 54 65 16 12 125 240 146 305 42 137 52 209 52 362 0
263 -56 446 -207 675 -74 113 -233 261 -368 345 -40 25 -161 83 -173 83 -6 0
-26 6 -44 14 -146 61 -370 81 -568 51 -138 -21 -275 -64 -325 -100 -57 -42
-70 -41 -106 11 -40 58 -217 270 -253 303 -37 34 -33 56 15 87 34 21 194 145
274 213 28 23 173 139 274 220 46 36 100 80 120 97 20 17 77 64 126 103 50 39
106 84 125 100 19 16 59 49 89 72 30 24 73 60 97 79 23 19 71 57 106 85 35 27
65 52 68 55 3 3 30 25 60 50 30 25 57 47 60 51 3 3 30 24 60 46 30 22 64 49
75 59 11 11 90 75 175 143 196 158 201 162 264 246 48 65 108 186 120 245 2
14 9 43 15 65 17 67 13 198 -10 288 -18 72 -106 267 -159 352 -10 17 -44 80
-75 140 -32 61 -61 115 -65 120 -4 6 -25 42 -45 80 -21 39 -53 97 -71 130 -18
33 -40 74 -48 90 -8 17 -29 55 -47 85 -17 30 -49 89 -71 130 -22 41 -49 91
-60 110 -23 39 -140 256 -151 280 -4 8 -15 29 -25 45 -10 17 -38 66 -62 110
-23 44 -54 96 -68 115 -95 132 -264 247 -422 286 -96 24 -225 26 -315 4z m268
-209 c141 -41 276 -148 339 -268 39 -73 82 -153 106 -193 11 -19 39 -71 62
-115 23 -44 47 -89 54 -100 39 -68 156 -284 156 -288 0 -3 19 -38 43 -79 24
-40 66 -116 92 -168 42 -80 110 -204 145 -260 5 -8 27 -51 50 -95 22 -44 50
-96 62 -115 113 -190 142 -333 99 -489 -22 -79 -43 -122 -85 -174 -41 -51
-225 -217 -241 -217 -7 0 -23 23 -35 52 -12 28 -46 87 -76 130 -30 44 -54 82
-54 84 0 3 -15 29 -34 57 -109 169 -148 231 -195 307 -155 253 -174 282 -298
472 -23 36 -43 69 -43 72 0 3 -24 41 -53 84 -29 42 -66 100 -82 127 -26 46
-69 114 -182 287 -23 36 -43 69 -43 72 0 3 -20 33 -43 68 -24 35 -68 103 -98
151 -30 49 -81 132 -114 186 -33 54 -89 137 -124 186 l-64 88 22 19 c13 10 32
18 44 18 24 0 104 23 202 57 39 14 86 29 105 33 19 5 49 13 65 18 49 17 146
13 218 -7z m-716 -86 c7 -19 -24 -55 -46 -55 -19 0 -46 39 -34 50 8 8 36 17
61 19 7 0 15 -6 19 -14z m-118 -131 c12 -15 21 -31 21 -36 0 -5 26 -48 58 -96
31 -48 59 -91 61 -97 2 -5 24 -40 47 -77 24 -37 44 -70 44 -74 0 -3 13 -23 28
-43 16 -20 59 -85 96 -146 37 -60 103 -166 146 -235 44 -69 93 -147 110 -175
17 -27 64 -102 105 -165 40 -63 106 -167 145 -230 39 -63 94 -149 121 -190 27
-41 53 -84 59 -95 14 -28 31 -54 61 -95 14 -19 29 -42 32 -50 4 -8 36 -60 71
-115 35 -55 97 -153 137 -218 99 -159 97 -155 157 -242 28 -42 52 -85 52 -95
0 -10 -23 -32 -55 -54 -66 -43 -107 -77 -229 -188 -16 -14 -35 -24 -42 -21 -7
2 -24 30 -39 61 -15 31 -74 135 -131 230 -57 95 -104 175 -104 178 0 4 -13 23
-30 44 -16 21 -30 40 -30 44 0 3 -54 96 -120 206 -66 110 -120 202 -120 205 0
2 -27 44 -60 94 -33 50 -60 93 -60 95 0 4 -108 186 -140 236 -5 8 -86 143
-180 300 -94 157 -175 292 -180 300 -5 8 -33 55 -62 103 -29 49 -61 101 -70
115 -9 15 -23 38 -30 52 -8 14 -34 58 -59 98 -24 40 -55 93 -69 116 -14 24
-43 67 -64 96 -43 57 -42 79 5 92 112 30 153 43 214 68 88 35 80 35 104 4z
m-437 -34 c6 0 7 -11 3 -27 -14 -58 -44 -69 -72 -27 -16 26 -16 27 7 46 13 10
30 16 37 13 8 -3 19 -5 25 -5z m-94 -170 c26 -49 132 -230 152 -260 5 -8 44
-73 86 -145 42 -71 90 -149 105 -172 16 -23 29 -44 29 -47 0 -3 30 -55 68
-116 37 -61 72 -119 77 -128 6 -10 33 -55 60 -100 28 -46 55 -91 60 -100 44
-76 143 -240 157 -261 10 -14 22 -35 27 -46 5 -11 21 -37 35 -58 14 -21 26
-40 26 -43 0 -3 24 -43 53 -90 28 -47 60 -99 70 -117 22 -37 124 -206 149
-245 10 -15 21 -34 25 -42 4 -8 20 -34 35 -56 15 -23 28 -46 28 -51 0 -6 13
-28 28 -49 31 -44 122 -192 122 -200 0 -2 12 -23 27 -47 37 -57 51 -79 60 -97
4 -8 19 -33 33 -55 77 -117 89 -138 84 -147 -3 -5 -23 -20 -45 -34 -22 -13
-47 -32 -57 -42 -10 -9 -57 -48 -105 -85 -48 -38 -107 -85 -131 -105 -23 -20
-60 -50 -81 -67 -40 -31 -174 -139 -291 -235 -36 -30 -92 -75 -124 -100 -31
-25 -123 -99 -204 -165 -82 -66 -162 -131 -179 -145 -18 -14 -65 -53 -105 -87
-128 -110 -210 -143 -362 -143 -58 -1 -163 -5 -235 -10 -71 -5 -241 -14 -376
-20 -135 -5 -317 -17 -405 -25 -213 -21 -289 -10 -414 62 -115 65 -167 134
-305 398 -37 72 -75 141 -85 155 -9 14 -36 63 -60 110 -23 46 -51 98 -61 115
-10 16 -22 37 -26 45 -4 8 -21 40 -39 70 -17 30 -57 105 -89 165 -31 61 -60
115 -65 120 -4 6 -32 57 -62 115 -31 58 -65 121 -77 140 -11 19 -24 42 -28 50
-4 8 -39 75 -79 147 -105 192 -109 206 -109 348 1 101 4 128 23 173 26 62 77
143 119 190 16 17 56 69 88 115 32 45 93 129 135 187 42 58 130 179 195 270
301 418 302 419 400 468 33 16 92 39 130 50 64 18 176 55 265 87 19 7 103 34
185 60 83 25 160 51 173 56 33 13 227 77 292 95 30 9 70 23 88 30 18 8 40 14
48 14 9 0 28 6 42 14 15 8 92 36 172 62 80 25 156 52 170 60 40 21 48 17 78
-36z m2249 -2236 c7 -18 -12 -34 -39 -34 -13 0 -18 8 -18 25 0 20 5 25 25 25
14 0 28 -7 32 -16z m-5428 -264 c14 0 37 -14 56 -34 33 -35 43 -53 148 -256
32 -63 73 -142 91 -175 69 -127 241 -455 352 -670 86 -167 110 -195 166 -195
16 0 41 12 60 29 31 27 35 37 51 137 10 60 25 140 33 178 8 38 14 99 14 136 0
48 4 71 15 80 24 20 41 5 65 -62 23 -61 35 -84 114 -228 20 -36 48 -88 63
-117 l27 -52 -18 -103 c-9 -57 -21 -130 -27 -163 -5 -33 -18 -109 -29 -170
-38 -201 -40 -220 -35 -246 4 -15 16 -36 29 -48 l23 -22 1189 0 1189 1 27 30
c38 42 45 76 23 114 -22 36 -114 145 -198 232 l-59 61 23 22 c12 11 30 21 39
21 26 0 101 53 155 108 28 29 56 52 64 52 17 0 51 -29 51 -43 0 -10 41 -64
122 -157 26 -30 67 -78 92 -107 51 -60 51 -82 2 -112 -95 -59 -275 -326 -320
-476 -10 -33 -21 -66 -25 -73 -5 -11 -227 -14 -1239 -15 l-1234 -2 -27 -31
c-23 -25 -29 -44 -35 -103 -4 -39 -14 -97 -22 -127 -8 -30 -14 -68 -14 -83 0
-16 -7 -62 -15 -102 -22 -103 -44 -218 -49 -254 -2 -16 -11 -66 -19 -110 -8
-44 -20 -111 -26 -150 -7 -38 -19 -104 -26 -145 -8 -41 -21 -122 -30 -180 -23
-150 -32 -177 -71 -219 -40 -45 -99 -65 -155 -52 -46 10 -73 29 -104 71 -33
44 -39 79 -25 147 27 140 39 205 54 308 18 116 37 223 62 340 8 39 14 80 14
93 0 12 6 48 14 80 8 31 22 102 31 157 9 55 23 134 30 175 7 41 21 120 30 175
9 55 23 126 31 157 18 73 18 108 0 134 -8 11 -42 73 -75 137 -34 65 -67 128
-75 140 -7 12 -50 92 -93 177 -114 221 -205 395 -245 470 -45 82 -143 268
-226 430 -35 69 -79 152 -98 185 -18 33 -41 77 -50 98 -9 20 -29 46 -44 57
-27 19 -45 20 -556 20 l-527 0 -34 26 c-53 40 -73 80 -73 145 0 42 5 63 23 87
32 42 67 69 97 74 19 2 790 1 1229 -2z m4905 -116 c21 -8 20 -27 -2 -47 -23
-21 -32 -13 -32 25 0 29 6 33 34 22z m-3892 -471 c18 -27 33 -62 33 -79 1 -29
-2 -33 -32 -37 -18 -3 -45 -15 -59 -26 -15 -12 -30 -18 -35 -15 -12 7 -11 53
1 106 5 24 12 55 15 71 8 43 39 35 77 -20z m-162 -335 c0 -35 -33 -165 -44
-176 -21 -21 -50 0 -76 53 -29 59 -24 89 15 93 16 2 40 12 53 23 28 22 52 25
52 7z m2873 -312 c3 -8 3 -17 0 -20 -8 -7 -43 12 -43 24 0 15 37 12 43 -4z
m-2302 -78 c36 -40 36 -51 3 -77 -45 -36 -74 -24 -74 30 0 21 27 79 36 79 3 0
18 -15 35 -32z m50 -174 c29 -32 136 -104 153 -104 6 0 17 -5 22 -10 6 -6 42
-19 80 -30 78 -23 210 -26 429 -10 72 5 220 14 330 20 110 5 270 14 355 20 85
5 191 12 235 15 l80 5 22 -33 c12 -18 47 -57 78 -87 30 -30 54 -59 52 -63 -1
-5 -439 -8 -972 -8 -878 0 -970 2 -973 16 -2 9 1 22 7 29 7 8 19 65 27 127 9
63 17 120 20 127 6 20 29 14 55 -14z m1819 -18 c0 -22 -17 -28 -40 -16 -29 16
-25 30 10 30 19 0 30 -5 30 -14z m1570 -165 c101 -16 223 -53 270 -81 8 -5 33
-19 55 -30 101 -54 232 -171 319 -286 45 -59 106 -184 141 -289 56 -168 50
-468 -11 -587 -8 -14 -14 -31 -14 -38 0 -21 -71 -154 -117 -218 -24 -34 -68
-86 -96 -115 -99 -101 -272 -214 -354 -232 -18 -3 -35 -11 -38 -16 -4 -5 -17
-9 -30 -9 -13 0 -45 -7 -71 -16 -67 -23 -324 -22 -414 1 -150 39 -253 83 -321
136 -20 16 -41 29 -45 29 -15 0 -159 145 -206 207 -45 58 -122 208 -152 293
-74 214 -56 471 50 698 112 241 324 429 582 519 57 20 230 51 292 52 25 1 97
-7 160 -18z m-765 -36 c0 -11 -8 -21 -17 -23 -14 -3 -18 3 -18 23 0 20 4 26
18 23 9 -2 17 -12 17 -23z m-657 -85 c42 -56 24 -80 -58 -80 -69 0 -77 35 -19
85 39 32 50 32 77 -5z m190 -652 c-4 -29 -55 -39 -65 -13 -7 20 12 35 45 35
19 0 23 -5 20 -22z"/>
<path d="M6440 2425 c-74 -15 -135 -36 -152 -53 -7 -7 -16 -12 -21 -12 -10 0
-70 -43 -111 -79 -103 -93 -186 -281 -186 -424 0 -46 21 -154 39 -202 63 -166
190 -288 360 -345 225 -76 473 -5 628 181 75 89 132 245 133 362 0 122 -63
293 -142 383 -79 90 -218 169 -333 190 -86 16 -131 16 -215 -1z m191 -209
c250 -60 366 -340 232 -559 -30 -47 -130 -126 -191 -149 -64 -24 -196 -24
-248 0 -179 82 -266 235 -236 411 25 147 132 261 277 296 66 17 99 17 166 1z"/>
</g>
</svg>
