 <svg  version="1.0" xmlns="http://www.w3.org/2000/svg"  width="272.000000pt" height="265.000000pt" viewBox="0 0 272.000000 265.000000"  preserveAspectRatio="xMidYMid meet">  <g transform="translate(0.000000,265.000000) scale(0.050000,-0.050000)" fill="#ffffff" stroke="none"> <path d="M2560 5000 l0 -200 80 0 80 0 0 200 0 200 -80 0 -80 0 0 -200z"/> <path d="M2104 4917 c-49 -14 -64 -28 -56 -53 6 -19 16 -59 23 -90 14 -55 101 -64 153 -17 16 15 -22 184 -41 181 -7 -1 -43 -10 -79 -21z"/> <path d="M1535 4869 c-72 -39 -80 -15 119 -361 l174 -303 66 31 c36 17 66 39 66 48 0 24 -346 616 -359 615 -6 0 -36 -14 -66 -30z"/> <path d="M3495 4602 c-140 -245 -139 -239 -63 -285 l62 -37 123 212 c142 245 139 233 68 269 -30 15 -60 30 -66 34 -5 3 -62 -84 -124 -193z"/> <path d="M2224 4574 c-62 -64 -64 -72 -64 -237 l0 -172 -92 -10 c-296 -34 -296 -436 0 -470 l92 -10 0 -174 c0 -170 1 -174 66 -237 l66 -64 350 0 350 0 64 66 c62 64 64 71 64 241 l0 175 185 -11 c272 -17 1117 -51 1327 -53 283 -3 398 84 398 302 0 215 -116 305 -388 302 -205 -2 -1099 -37 -1347 -52 l-175 -11 0 176 c0 174 -1 178 -66 241 l-66 64 -350 0 -350 0 -64 -66z m726 -654 l0 -550 -310 0 -310 0 -5 530 c-3 291 -1 541 4 555 8 20 80 25 316 21 l305 -6 0 -550z m1889 96 c127 -136 23 -236 -245 -235 -145 0 -1405 50 -1469 58 -28 4 1 161 30 163 1276 68 1631 71 1684 14z m-2679 -96 c0 -74 -4 -80 -56 -80 -91 0 -137 79 -80 136 60 60 136 29 136 -56z"/> <path d="M834 3997 c-19 -34 -33 -65 -30 -68 3 -3 236 -137 516 -299 281 -162 538 -311 573 -332 l63 -39 41 66 c51 80 110 36 -543 413 -632 366 -573 341 -620 259z"/> <path d="M4155 3449 c-277 -74 -259 -63 -234 -153 l20 -73 144 40 c321 88 355 99 353 113 0 8 -12 42 -25 76 l-23 61 -235 -64z"/> <path d="M3324 3448 c-81 -48 -84 -54 -59 -95 15 -24 35 -55 43 -69 12 -20 32 -15 89 19 108 64 109 67 74 135 -39 75 -39 75 -147 10z"/> <path d="M980 3409 c-29 -87 -42 -76 145 -127 196 -53 187 -54 213 22 28 79 21 86 -138 126 -71 17 -145 36 -163 42 -24 7 -40 -10 -57 -63z"/> <path d="M560 2960 l0 -80 480 0 480 0 0 80 0 80 -480 0 -480 0 0 -80z"/> <path d="M1704 3016 c-14 -14 -24 -81 -24 -160 l0 -136 -180 0 c-158 0 -183 -5 -205 -40 -23 -37 -46 -40 -357 -40 -387 0 -391 -1 -372 -162 37 -311 310 -590 619 -631 87 -11 95 -17 95 -67 0 -82 31 -95 237 -103 221 -8 323 -81 323 -230 0 -143 -268 -567 -358 -567 -41 0 -85 -11 -98 -24 -33 -33 -33 -399 0 -432 35 -35 2797 -35 2832 0 15 15 24 93 24 216 0 224 -10 240 -146 240 l-97 0 6 365 7 365 69 126 c105 195 278 314 488 338 57 6 114 20 128 31 34 27 35 557 1 591 -17 17 -170 24 -560 24 l-536 0 0 136 c0 79 -10 146 -24 160 -35 35 -1837 35 -1872 0z m1736 -216 l0 -80 -800 0 -800 0 0 80 0 80 800 0 800 0 0 -80z m1120 -400 l0 -160 -400 0 -400 0 0 -80 0 -80 193 0 192 0 -84 -91 c-176 -191 -210 -306 -218 -734 l-7 -375 -1050 0 -1051 0 30 45 c227 350 278 527 198 680 l-39 75 158 0 158 0 0 80 0 80 -400 0 -400 0 0 360 0 360 1560 0 1560 0 0 -160z m-3280 -163 l0 -242 -82 13 c-212 34 -399 197 -454 398 l-21 74 279 0 278 0 0 -243z m2800 -1597 l0 -80 -1280 0 -1280 0 0 80 0 80 1280 0 1280 0 0 -80z"/> <path d="M3760 2960 l0 -80 480 0 480 0 0 80 0 80 -480 0 -480 0 0 -80z"/> </g> </svg> 