 <svg  version="1.0" xmlns="http://www.w3.org/2000/svg"  width="582.000000pt" height="588.000000pt" viewBox="0 0 582.000000 588.000000"  preserveAspectRatio="xMidYMid meet">  <g transform="translate(0.000000,588.000000) scale(0.100000,-0.100000)" fill="#ffffff" stroke="none"> <path d="M322 5514 l-22 -15 0 -2579 c0 -2570 0 -2580 20 -2600 20 -20 30 -20 2600 -20 l2579 0 15 22 c14 20 16 287 16 2595 0 2562 0 2573 -20 2593 -20 20 -31 20 -2593 20 -2290 0 -2576 -2 -2595 -16z m2425 -986 c482 -482 803 -810 803 -821 0 -23 -612 -637 -635 -637 -19 0 -2268 2244 -2258 2254 3 3 295 6 647 6 l641 0 802 -802z m-43 795 c8 -8 -213 -233 -230 -233 -13 0 -234 219 -234 232 0 10 454 11 464 1z m1723 -895 l903 -903 0 -260 0 -260 -184 -185 c-102 -102 -193 -186 -203 -188 -26 -4 -2315 2285 -2311 2310 2 10 86 101 188 203 l184 185 260 0 261 0 902 -902z m746 895 c8 -7 -658 -673 -674 -673 -15 0 -669 654 -669 669 0 8 176 11 668 11 368 0 672 -3 675 -7z m-3643 -1175 c0 -18 -622 -638 -640 -638 -9 0 -100 85 -203 188 l-187 188 0 640 c0 353 3 644 6 647 9 9 1024 -1008 1024 -1025z m3800 351 c0 -543 -2 -669 -13 -669 -16 0 -667 653 -667 669 0 16 663 680 673 674 4 -2 7 -305 7 -674z m-1638 -3135 c-175 -176 -324 -322 -332 -322 -16 -2 -2320 2296 -2320 2313 0 6 145 155 322 332 l321 321 1163 -1161 1162 -1162 -316 -321z m-2451 1502 c398 -399 725 -732 727 -741 4 -16 -598 -626 -629 -637 -11 -5 -132 110 -427 405 l-412 412 0 643 c0 353 4 642 8 642 5 0 334 -326 733 -724z m3292 -123 l797 -798 0 -641 c0 -352 -3 -644 -6 -647 -10 -10 -2254 2239 -2254 2258 0 9 142 158 315 331 265 266 317 313 332 305 10 -5 377 -369 816 -808z m797 -274 c0 -126 -4 -229 -8 -229 -13 0 -232 221 -232 234 0 16 222 236 232 230 4 -3 8 -108 8 -235z m-4069 -1208 c406 -406 739 -743 739 -750 0 -8 -193 -10 -747 -9 l-748 3 -3 748 c-1 539 1 747 9 747 6 0 343 -332 750 -739z m1605 -20 c398 -399 724 -729 724 -733 0 -4 -289 -8 -642 -8 l-643 0 -407 407 c-242 242 -408 415 -408 426 0 27 610 637 633 634 10 -1 344 -328 743 -726z m1804 -220 c280 -280 506 -511 503 -515 -4 -3 -295 -6 -647 -6 l-641 0 -187 187 c-104 103 -188 195 -188 203 0 18 620 640 638 640 7 0 242 -229 522 -509z"/> </g> </svg> 