 <svg  version="1.0" xmlns="http://www.w3.org/2000/svg"  width="205.000000pt" height="190.000000pt" viewBox="0 0 205.000000 190.000000"  preserveAspectRatio="xMidYMid meet">  <g transform="translate(0.000000,190.000000) scale(0.100000,-0.100000)" fill="#ffffff" stroke="none"> <path d="M437 1655 c-48 -16 -83 -48 -108 -97 -18 -35 -19 -66 -19 -588 0 -527 1 -552 20 -589 24 -48 70 -87 118 -101 50 -14 1064 -14 1114 0 48 14 94 53 118 101 19 37 20 62 20 589 0 527 -1 552 -20 589 -24 48 -70 87 -118 101 -23 6 -230 10 -562 10 -419 -1 -533 -4 -563 -15z m223 -160 l0 -125 -155 0 -155 0 0 48 c0 97 32 160 95 188 18 8 68 13 123 14 l92 0 0 -125z m650 0 l0 -125 -305 0 -305 0 0 125 0 125 305 0 305 0 0 -125z m253 111 c65 -27 97 -90 97 -188 l0 -48 -155 0 -155 0 0 125 0 125 90 0 c55 0 104 -5 123 -14z m-583 -448 l0 -163 -312 2 -313 2 -3 161 -2 160 315 0 315 0 0 -162z m678 2 l-3 -161 -313 -2 -312 -2 0 163 0 162 315 0 315 0 -2 -160z m-1000 -379 l2 -161 -155 0 -155 0 0 158 c0 87 2 161 4 163 2 2 71 3 153 2 l148 -1 3 -161z m650 -1 l2 -160 -305 0 -305 0 0 158 c0 87 2 161 4 163 2 2 139 3 303 2 l298 -2 3 -161z m350 1 l2 -161 -155 0 -155 0 0 158 c0 87 2 161 4 163 2 2 71 3 153 2 l148 -1 3 -161z m-678 -336 l0 -125 -250 0 c-268 0 -294 4 -337 51 -26 29 -43 88 -43 152 l0 47 315 0 315 0 0 -125z m680 78 c0 -64 -17 -123 -43 -152 -43 -47 -69 -51 -337 -51 l-250 0 0 125 0 125 315 0 315 0 0 -47z"/> </g> </svg> 