 <svg  version="1.0" xmlns="http://www.w3.org/2000/svg"  width="300.000000pt" height="273.000000pt" viewBox="0 0 300.000000 273.000000"  preserveAspectRatio="xMidYMid meet">  <g transform="translate(0.000000,273.000000) scale(0.100000,-0.100000)" fill="#ffffff" stroke="none"> <path d="M397 2572 c-6 -8 -73 -241 -117 -400 -39 -145 -36 -152 60 -152 l70 0 -2 -622 -3 -623 -65 -3 c-35 -2 -70 -8 -77 -14 -9 -7 -13 -40 -13 -104 0 -83 2 -95 20 -106 18 -12 20 -24 20 -153 0 -152 4 -165 52 -165 l28 0 0 155 0 155 25 0 c14 0 25 6 25 13 0 6 3 22 6 35 6 20 3 22 -29 22 -55 0 -67 8 -67 46 l0 34 64 0 64 0 7 53 c4 28 9 328 11 665 l4 612 1005 0 1005 0 0 -64 0 -64 35 -4 c20 -2 38 -2 40 1 3 2 5 33 5 67 l0 63 66 3 c49 2 70 7 77 20 8 12 -5 75 -57 260 -38 134 -72 251 -77 261 -9 16 -72 17 -1094 17 -596 0 -1086 -3 -1088 -8z m2132 -104 c5 -18 28 -100 51 -183 22 -82 43 -158 46 -167 5 -17 -54 -18 -1135 -18 -1024 0 -1141 2 -1141 16 0 8 23 98 52 200 l51 184 1033 0 1032 0 11 -32z"/> <path d="M1315 1796 c-39 -17 -61 -43 -72 -86 -17 -61 18 -139 69 -156 11 -3 18 -15 18 -30 0 -21 -5 -24 -33 -24 -38 0 -57 -15 -57 -46 0 -24 17 -34 61 -34 l29 0 0 -250 0 -250 -28 0 c-40 0 -65 -21 -60 -51 3 -21 9 -24 46 -27 41 -3 42 -4 42 -37 0 -29 -4 -34 -27 -37 -24 -3 -28 -8 -31 -40 l-3 -38 686 0 686 0 -3 -37 -3 -38 -662 -3 -663 -2 0 -35 0 -35 550 0 550 0 0 -138 c0 -95 4 -144 13 -155 11 -15 28 -17 132 -15 l120 3 3 147 c2 135 4 148 22 158 18 10 20 21 20 108 0 63 -4 102 -12 110 -7 7 -39 12 -75 12 l-63 0 0 35 0 35 63 0 c65 0 87 11 87 42 0 25 -31 38 -94 38 l-56 0 0 250 0 249 66 3 c74 3 99 21 78 56 -8 13 -27 18 -78 20 -61 3 -66 5 -66 26 0 15 9 27 25 34 35 16 65 70 65 117 0 129 -158 182 -239 79 -32 -40 -29 -123 4 -163 14 -16 35 -33 45 -36 13 -4 20 -15 20 -31 l0 -24 -540 0 -540 0 0 24 c0 16 7 27 20 31 29 9 68 61 76 100 13 69 -60 155 -130 155 -17 -1 -44 -7 -61 -14z m102 -92 c15 -24 15 -29 2 -53 -11 -20 -22 -26 -49 -26 -27 0 -38 6 -49 26 -13 24 -13 29 2 53 12 18 26 26 47 26 21 0 35 -8 47 -26z m1153 11 c7 -8 13 -26 13 -40 0 -51 -56 -74 -95 -38 -22 20 -23 42 -2 71 18 26 65 30 84 7z m-1040 -545 l0 -250 -60 0 -60 0 0 250 0 250 60 0 60 0 0 -250z m190 0 l0 -250 -60 0 -60 0 0 250 0 250 60 0 60 0 0 -250z m190 0 l0 -251 -57 3 -58 3 -3 235 c-1 129 0 240 2 247 4 8 25 13 61 13 l55 0 0 -250z m190 0 l0 -250 -55 0 -55 0 0 250 0 250 55 0 55 0 0 -250z m200 0 l0 -250 -60 0 -60 0 0 250 0 250 60 0 60 0 0 -250z m190 0 l0 -250 -55 0 -55 0 0 250 0 250 55 0 55 0 0 -250z m0 -365 l0 -35 -540 0 -540 0 0 35 0 35 540 0 540 0 0 -35z m118 -382 l3 -113 -61 0 -60 0 0 108 c0 60 3 112 7 116 4 4 30 6 58 4 l50 -3 3 -112z"/> <path d="M592 1488 c-9 -9 -12 -103 -12 -363 0 -339 -1 -351 -20 -363 -17 -10 -20 -23 -20 -80 0 -56 -3 -69 -20 -80 -17 -10 -20 -23 -20 -77 0 -58 -2 -65 -20 -65 -10 0 -24 -9 -30 -19 -14 -28 -13 -173 2 -194 12 -16 46 -17 423 -15 l410 3 3 106 3 107 -29 10 c-27 9 -29 13 -31 73 -1 42 -7 68 -16 75 -10 8 -15 31 -15 73 0 48 -4 65 -20 81 -19 19 -20 33 -20 368 0 257 -3 351 -12 360 -17 17 -539 17 -556 0z m486 -390 l2 -328 -210 0 -210 0 0 323 c0 178 3 327 7 330 3 4 97 6 207 5 l201 -3 3 -327z m40 -445 l-3 -38 -247 -3 -248 -2 0 40 0 40 251 0 250 0 -3 -37z m40 -155 l3 -38 -290 0 -291 0 0 40 0 40 288 -2 287 -3 3 -37z m62 -153 l0 -35 -350 0 -350 0 0 35 0 35 350 0 350 0 0 -35z"/> </g> </svg> 