 <svg  version="1.0" xmlns="http://www.w3.org/2000/svg"  width="272.000000pt" height="230.000000pt" viewBox="0 0 272.000000 230.000000"  preserveAspectRatio="xMidYMid meet">  <g transform="translate(0.000000,230.000000) scale(0.100000,-0.100000)" fill="#ffffff" stroke="none"> <path d="M402 1888 c-17 -17 -17 -259 0 -276 7 -7 29 -12 50 -12 l38 0 0 -627 c0 -346 4 -633 8 -639 18 -27 56 -34 186 -34 144 0 183 9 191 44 2 12 6 138 8 281 4 233 6 267 26 326 54 168 191 293 363 334 252 59 509 -86 589 -334 20 -59 22 -93 26 -326 2 -143 6 -269 8 -281 8 -35 47 -44 191 -44 130 0 168 7 186 34 4 6 8 293 8 639 l0 627 38 0 c21 0 43 5 50 12 17 17 17 259 0 276 -17 17 -1949 17 -1966 0z m1938 -138 l0 -100 -955 0 -955 0 0 100 0 100 955 0 955 0 0 -100z m-100 -759 c0 -335 -3 -616 -6 -625 -9 -24 -289 -24 -298 0 -3 9 -6 130 -6 269 0 240 -1 258 -24 330 -30 95 -69 156 -150 234 -217 208 -553 198 -763 -22 -133 -141 -153 -211 -153 -548 0 -136 -3 -254 -6 -263 -9 -24 -289 -24 -298 0 -3 9 -6 290 -6 625 l0 609 855 0 855 0 0 -609z"/> <path d="M1206 1020 c-95 -99 -131 -155 -158 -244 -52 -173 26 -347 191 -425 47 -22 70 -26 146 -26 76 0 99 4 146 26 79 37 133 90 171 167 30 60 33 75 33 157 0 85 -3 96 -37 166 -45 90 -139 199 -173 199 -13 0 -37 -11 -53 -24 l-29 -25 -54 55 c-75 76 -87 74 -183 -26z m159 -21 c72 -73 78 -75 121 -37 l37 32 48 -52 c26 -29 63 -82 81 -119 30 -61 33 -76 33 -153 0 -72 -4 -93 -27 -135 -26 -50 -101 -132 -82 -90 16 36 10 137 -10 179 -23 47 -112 144 -154 168 -29 17 -30 17 -69 -11 -51 -37 -116 -112 -139 -159 -22 -47 -30 -122 -16 -161 17 -47 -3 -37 -47 25 -105 146 -76 312 85 484 42 44 79 80 83 80 4 0 29 -23 56 -51z m93 -314 c88 -93 106 -163 62 -244 -31 -60 -159 -83 -227 -41 -63 38 -83 120 -48 194 21 45 121 156 140 156 7 0 40 -29 73 -65z"/> </g> </svg> 