<?xml version="1.0" standalone="no"?>
<!DOCTYPE svg PUBLIC "-//W3C//DTD SVG 20010904//EN"
 "http://www.w3.org/TR/2001/REC-SVG-20010904/DTD/svg10.dtd">
<svg version="1.0" xmlns="http://www.w3.org/2000/svg"
 width="300.000000pt" height="311.000000pt" viewBox="0 0 300.000000 311.000000"
 preserveAspectRatio="xMidYMid meet">
<metadata>
Created by potrace 1.10, written by Peter Selinger 2001-2011
</metadata>
<g transform="translate(0.000000,311.000000) scale(0.050000,-0.050000)"
fill="#ffffff" stroke="none">
<path d="M366 5701 c-148 -90 -135 146 -142 -2710 -6 -2844 -13 -2690 123
-2773 61 -37 138 -38 2663 -38 2831 1 2660 -7 2744 118 l46 68 0 2590 c0 2915
13 2675 -148 2752 -116 55 -5195 48 -5286 -7z m5234 -161 c55 -34 55 -5105 0
-5160 -56 -56 -5113 -64 -5169 -9 -41 42 -48 5124 -7 5165 30 30 5128 35 5176
4z"/>
<path d="M685 2955 l5 -2325 2320 0 2320 0 5 2325 5 2325 -2330 0 -2330 0 5
-2325z m2235 1155 l0 -1010 -1030 0 -1030 0 0 1010 0 1010 1030 0 1030 0 0
-1010z m2255 -5 l5 -1005 -1040 0 -1040 0 0 997 c0 548 6 1002 14 1010 7 7
473 11 1035 8 l1021 -5 5 -1005z m-2255 -2245 l0 -1060 -1030 0 -1030 0 0
1060 0 1060 1030 0 1030 0 0 -1060z m2260 0 l0 -1060 -1040 0 -1040 0 0 1060
0 1060 1040 0 1040 0 0 -1060z"/>
<path d="M2005 4628 c-276 -263 -312 -313 -261 -364 52 -52 109 -15 388 249
280 265 314 313 264 363 -55 55 -111 19 -391 -248z"/>
<path d="M1310 4596 c-280 -262 -323 -324 -261 -375 55 -46 116 -5 399 266
252 242 277 272 265 320 -28 112 -100 74 -403 -211z"/>
</g>
</svg>
